<svg xmlns="http://www.w3.org/2000/svg" viewBox="0 0 90 50"><style type="text/css">
	.st0{fill:#fff;stroke:#fff;stroke-miterlimit:10;}
	.st1{fill:#fff;}
	.st2{fill:none;stroke:#fff;stroke-width:1.65;stroke-miterlimit:10;}
	.st3{fill:none;stroke:#fff;stroke-miterlimit:10;}
</style><path class="st0" d="M45.5 3.9c-0.6-0.8-1.6-1.1-2.4-0.7 -0.1 0-0.8 0.3-1 1 -0.3 0.9 0.4 1.9 0.8 2.5 1 1.4 2.6 2.4 2.6 2.3l0 0V3.9z"/><path class="st0" d="M45.5 3.9c0.6-0.8 1.6-1.1 2.4-0.7 0.1 0 0.8 0.3 1 1 0.3 0.9-0.4 1.9-0.8 2.5 -1 1.4-2.6 2.4-2.6 2.3l0 0V3.9z"/><path class="st1" d="M45.7 14l3.9-1.5c0.2-0.5 1.9-5.1 6.8-6.6 3.8-1.2 8-0.1 10.9 2.9 1.2 1.5 2.1 2.8 2.8 3.9 1 1.6 1.7 2.9 2.2 3.8 0.7 1.2 1.2 2.3 1.6 3.1 0.8 0.9 2.2 2.3 4.3 3.4 2 1.1 3.9 1.4 5.1 1.6 2-0.2 3-0.8 3.6-1.3 0.1-0.1 0.3-0.3 0.4-0.3 0.1 0.1-1.3 2.1-2.6 3.9 1.1 0.3 2.2 0.6 3.3 0.9 -0.6 1.1-1.5 2.5-3 3.9 -4.3 4.1-9.6 4.5-12.4 4.7 -3.7 0.3-11.1 0.9-17.1-4.3 -5.4-4.7-6.3-13.6-6.3-14L45.7 14z"/><path class="st1" d="M76.5 42.7c0.2-0.2 3.3-3 3.7-6.2 0.1-0.5 0.3-1.5 1-1.9 0.8-0.4 2 0 2.4 0.8 0.6 1 0.2 2.7-1.3 3.7 -1 0.8-1.9 1.5-2.9 2.3l-1.4 1.3H76.5z"/><path class="st1" d="M65.3 42.7c0.2-0.1 2.8-2.5 3.1-5.3 0-0.4 0.2-1.3 0.9-1.6 0.6-0.3 1.6 0 2 0.7 0.5 0.8 0.2 2.3-1.1 3.1 -0.8 0.7-1.6 1.3-2.4 2l-1.1 1.1H65.3z"/><path class="st0" d="M87.7 43.1c0.5-0.5 0.7-1.2 0.5-1.8 0-0.1-0.2-0.6-0.7-0.8 -0.6-0.3-1.3 0.3-1.7 0.6 -1 0.8-1.6 2-1.6 1.9l0 0L87.7 43.1z"/><path class="st0" d="M87.7 43.1c0.5 0.5 0.7 1.2 0.5 1.8 0 0.1-0.2 0.6-0.7 0.8 -0.6 0.2-1.3-0.3-1.7-0.6 -1-0.8-1.6-2-1.6-2l0 0L87.7 43.1z"/><line class="st0" x1="52.9" y1="43.1" x2="84.3" y2="43"/><path class="st2" d="M59.4 43.2c-0.1 0.1 2.2 0.7 3.6 2.7 0.5 0.7 0.7 1.4 1.5 1.8 0.5 0.2 1.3 0.4 1.8 0 0.3-0.3 0.3-0.8 0.2-0.9 0-0.2-0.1-0.8-1.1-1.4 -1-0.7-1.7-0.7-3-1C60.5 43.9 59.4 43.2 59.4 43.2z"/><path class="st1" d="M44.2 14l-3.9-1.5c-0.2-0.5-1.9-5.1-6.8-6.6 -3.8-1.2-8-0.1-10.9 2.9 -1.2 1.5-2.1 2.8-2.8 3.9 -1 1.6-1.7 2.9-2.2 3.8 -0.7 1.2-1.2 2.3-1.6 3.1 -0.8 0.9-2.2 2.3-4.3 3.4 -2 1.1-3.9 1.4-5.1 1.6 -2-0.2-3-0.8-3.6-1.3 -0.1-0.1-0.3-0.3-0.4-0.3 -0.1 0.1 1.3 2.1 2.6 3.9C4.2 27 3.1 27.3 2 27.6c0.6 1.1 1.5 2.5 3 3.9 4.3 4.1 9.6 4.5 12.4 4.7 3.7 0.3 11.1 0.9 17.1-4.3 5.4-4.7 6.3-13.6 6.3-14L44.2 14z"/><path class="st1" d="M13.5 42.7c-0.2-0.2-3.3-3-3.7-6.2 -0.1-0.5-0.3-1.5-1-1.9 -0.8-0.4-2 0-2.4 0.8 -0.6 1-0.2 2.7 1.3 3.7 1 0.8 1.9 1.5 2.9 2.3l1.4 1.3H13.5z"/><path class="st1" d="M24.6 42.7c-0.2-0.1-2.8-2.5-3.1-5.3 0-0.4-0.2-1.3-0.9-1.6 -0.6-0.3-1.6 0-2 0.7 -0.5 0.8-0.2 2.3 1.1 3.1 0.8 0.7 1.6 1.3 2.4 2l1.1 1.1H24.6z"/><path class="st0" d="M2.2 43.1c-0.5-0.5-0.7-1.2-0.5-1.8 0-0.1 0.2-0.6 0.7-0.8 0.6-0.3 1.3 0.3 1.7 0.6 1 0.8 1.6 2 1.6 1.9l0 0L2.2 43.1z"/><path class="st0" d="M2.2 43.1c-0.5 0.5-0.7 1.2-0.5 1.8 0 0.1 0.2 0.6 0.7 0.8C3 45.8 3.7 45.3 4.1 45c1-0.8 1.6-2 1.6-2l0 0L2.2 43.1z"/><line class="st3" x1="37.1" y1="43.1" x2="5.7" y2="43"/><path class="st2" d="M30.6 43.2c0.1 0.1-2.2 0.7-3.6 2.7 -0.5 0.7-0.7 1.4-1.5 1.8 -0.5 0.2-1.3 0.4-1.8 0 -0.3-0.3-0.3-0.8-0.2-0.9 0-0.2 0.1-0.8 1.1-1.4 1-0.7 1.7-0.7 3-1C29.4 43.9 30.5 43.2 30.6 43.2z"/></svg>
