<?xml version="1.0" encoding="utf-8"?>
<!-- Generator: Adobe Illustrator 21.0.2, SVG Export Plug-In . SVG Version: 6.00 Build 0)  -->
<svg version="1.1" id="Слой_1" xmlns="http://www.w3.org/2000/svg" xmlns:xlink="http://www.w3.org/1999/xlink" x="0px" y="0px"
	 viewBox="0 0 80 75" style="enable-background:new 0 0 80 75;" xml:space="preserve">
<style type="text/css">
	.st0{fill:#FFFFFF;}
	.st1{fill:#FFFFFF;stroke:#FFFFFF;stroke-miterlimit:10;}
	.st2{fill:none;stroke:#FFFFFF;stroke-width:1.75;stroke-miterlimit:10;}
</style>
<g>
	<path class="st0" d="M5.1,16.9l6.2-2.3c0.3-0.9,3.1-8,10.7-10.4c6-1.9,12.6-0.1,17.2,4.5c1.9,2.4,3.4,4.5,4.5,6.2
		c1.6,2.5,2.8,4.5,3.5,5.9c1.1,2,1.9,3.6,2.5,4.8c1.3,1.5,3.5,3.6,6.8,5.3c3.2,1.7,6.1,2.3,8,2.5c3.1-0.3,4.7-1.2,5.6-2.1
		c0.2-0.2,0.5-0.5,0.6-0.5c0.2,0.1-2,3.3-4.1,6.1c1.7,0.5,3.4,0.9,5.1,1.4c-0.9,1.7-2.4,4-4.7,6.2c-6.7,6.4-15.2,7.1-19.6,7.5
		c-5.9,0.5-17.5,1.5-26.9-6.8c-8.5-7.5-10-21.5-9.9-22L5.1,16.9z"/>
	<path class="st0" d="M53.6,62.2c0.3-0.3,5.2-4.7,5.8-9.8c0.1-0.7,0.4-2.3,1.6-2.9c1.2-0.6,3.1,0,3.9,1.2c1,1.5,0.4,4.2-2,5.8
		c-1.5,1.2-3,2.4-4.5,3.7l-2.2,2H53.6z"/>
	<path class="st0" d="M36.1,62.2c0.3-0.2,4.4-3.9,4.9-8.3c0.1-0.6,0.4-2,1.4-2.5c1-0.5,2.6,0,3.2,1c0.8,1.3,0.3,3.6-1.7,4.9
		c-1.3,1-2.5,2.1-3.8,3.1l-1.8,1.7H36.1z"/>
	<g>
		<g>
			<path class="st0" d="M71.4,62.8c0.8-0.7,1.1-1.9,0.8-2.8c0-0.1-0.3-0.9-1.1-1.2c-1-0.4-2,0.4-2.7,0.9c-1.5,1.2-2.5,3.1-2.5,3l0,0
				L71.4,62.8z"/>
			<path class="st0" d="M71.4,62.8c0.8,0.8,1.1,1.9,0.8,2.8c0,0.1-0.3,0.9-1.1,1.2c-1,0.4-2-0.4-2.7-1c-1.5-1.2-2.5-3.1-2.5-3.1l0,0
				L71.4,62.8z"/>
		</g>
		<line class="st1" x1="16.4" y1="62.8" x2="66" y2="62.8"/>
	</g>
	<path class="st2" d="M26.7,63.1c-0.1,0.2,3.5,1.1,5.7,4.3c0.8,1.1,1.1,2.2,2.4,2.8c0.7,0.3,2.1,0.7,2.8,0C38,69.7,38,69,38,68.8
		c0-0.4-0.2-1.2-1.8-2.2c-1.6-1-2.7-1.1-4.7-1.6C28.5,64.2,26.8,63,26.7,63.1z"/>
</g>
</svg>
