<svg id="Слой_1" data-name="Слой 1" xmlns="http://www.w3.org/2000/svg" viewBox="0 0 55.43 35.56"><defs><style>.cls-1{fill:#fff;}</style></defs><title>leaf</title><path class="cls-1" d="M42.43,26.13a6,6,0,0,1-1.78,2.51,14.84,14.84,0,0,0-2.81,2.3S42.7,25.62,42.43,26.13Z" transform="translate(-0.57 -0.42)"/><path class="cls-1" d="M43.34,22.62l-5.5,8.31,4.6-4.81c1.55-2.7,1-3.63,1-3.63a5.49,5.49,0,0,0-1.18-.16,4.38,4.38,0,0,0-2,.6l-.36.24.36-.24L38.73,24a6.32,6.32,0,0,0-2.37,3.1l0,.09v0c0,.1-.23.15-.23.15-.31.08-1.31,1.53-2.18,2.3a6.6,6.6,0,0,0-.54.53c-.1.11-.19.23-.4.5a.26.26,0,0,0-.07.18c0,.19,1,.3,4.92.08" transform="translate(-0.57 -0.42)"/><path class="cls-1" d="M33.81,34.34l0,0h0a2.7,2.7,0,0,0,1-.6l.33-.36.18-.08q.66-.66,1.39-1.33t1.3-1.16l-5.06,3.72Z" transform="translate(-0.57 -0.42)"/><path class="cls-1" d="M29.85,35.45a.55.55,0,0,0,.12.45c.09.07.26.18.76-.12.77-.47.76-.31.76-.31.16-.08.38-.19.63-.35a6.71,6.71,0,0,0,1.37-1.07,5.65,5.65,0,0,0-.7.51l-2-.66a.52.52,0,0,0-.11.1.49.49,0,0,0-.11.28,2.87,2.87,0,0,1-.56,1" transform="translate(-0.57 -0.42)"/><path class="cls-1" d="M37.84,30.94l-4.93,0s-1.42,1.51-1.36,1.84-.94.82-.77,1.29,2,.66,2,.66Z" transform="translate(-0.57 -0.42)"/><path class="cls-1" d="M48.56,18A5.22,5.22,0,0,0,48,15.12a12.35,12.35,0,0,1-1.6-3S48.58,18.57,48.56,18Z" transform="translate(-0.57 -0.42)"/><path class="cls-1" d="M47.86,21.55,46.41,12.1,48.56,18c.24,3-.68,3.68-.68,3.68a5.46,5.46,0,0,1-1.17-.22,3.75,3.75,0,0,1-1.59-1.18L44.9,20l.23.34-.95-1.46a5.53,5.53,0,0,1-.84-3.62l0-.09v0c0-.1-.15-.21-.15-.21-.25-.17-.54-1.84-1-2.82a5.55,5.55,0,0,1-.27-.66c0-.13-.07-.27-.15-.59a.25.25,0,0,1,0-.19c.1-.17,1.1.05,4.6,1.48" transform="translate(-0.57 -0.42)"/><path class="cls-1" d="M44.17,7.68l0,0h0a2.25,2.25,0,0,1,.62.86l.15.43.13.13q.32.82.71,1.67t.7,1.48l-3.05-5Z" transform="translate(-0.57 -0.42)"/><path class="cls-1" d="M41,5.4A.64.64,0,0,1,41.3,5c.11,0,.32-.09.65.35.5.68.57.53.57.53a6.17,6.17,0,0,1,.43.52,5.58,5.58,0,0,1,.8,1.42,4.68,4.68,0,0,1-.42-.7H41.21A.43.43,0,0,1,41.15,7a.47.47,0,0,1,0-.29,2.62,2.62,0,0,0-.08-1.1" transform="translate(-0.57 -0.42)"/><path class="cls-1" d="M46.41,12.1l-4.59-1.52s-.65-1.85-.45-2.14S40.86,7.39,41.22,7s2.11,0,2.11,0Z" transform="translate(-0.57 -0.42)"/><path class="cls-1" d="M16.92,14.42c0,.14.15.21.22.27a7.24,7.24,0,0,0,1,.79,1.15,1.15,0,0,1,.27.06,1,1,0,0,1,.55.44L19,16l.27.13c.19.08.38.16.57.23a1.08,1.08,0,0,1,.35.2c1.24.57,2.35,1.06,2.35,1.06l1.24.3c.66,0,2.92.91,3.64.92a1.23,1.23,0,0,1,.66.09c.16.09.29.23.5.22a.52.52,0,0,0,.19,0,33.25,33.25,0,0,0,3.82.58,9.71,9.71,0,0,1,2.2.3c1.3.33,1.63.72,3,1a20.18,20.18,0,0,0,2.25.3c.81.11,1.92.28,3.24.58a17.86,17.86,0,0,0,3.28.72A20.39,20.39,0,0,0,56,21.48c-.64,0-1.16-.09-1.52-.12a5.86,5.86,0,0,0-1.67-.09,4.06,4.06,0,0,1-1,.14,6.4,6.4,0,0,0-.65,0,5.35,5.35,0,0,0-.91.18l-.69.14a4,4,0,0,1-1.24,0c-1.42-.19-5-1.16-7.42-1.6-.34-.06-.8-.14-1.36-.22a1.11,1.11,0,0,1-.46.11,5.82,5.82,0,0,1-2-.62.92.92,0,0,1-.28-.17,7.66,7.66,0,0,1-.87-.27l-.58,0a.73.73,0,0,1-.43-.11,7.13,7.13,0,0,1-2.59-.16,1,1,0,0,1-.36-.23.84.84,0,0,1-.39,0,.88.88,0,0,1-.43-.1L31,18.27a6.86,6.86,0,0,1-1.77-.48.91.91,0,0,1-.28-.21l-.22-.05-.15-.05L28,17.33a1.09,1.09,0,0,1-.45.1,14.5,14.5,0,0,1-2.22-.09,1.15,1.15,0,0,1-.6-.27,9,9,0,0,1-2.52-.82A1,1,0,0,1,22,16.1c-1.43-.65-2.8-1.54-4.11-2.06l-.48-.14h-.07A.57.57,0,0,0,16.92,14.42Z" transform="translate(-0.57 -0.42)"/><path class="cls-1" d="M33.12,24.22c-.68,1.2-1,2-2.09,2.57A15.51,15.51,0,0,0,27.56,29S33.42,23.68,33.12,24.22Z" transform="translate(-0.57 -0.42)"/><path class="cls-1" d="M21.1,28.5c.08.42,2.94.87,6.46.53.61-.06,1.17-.13,1.64-.21l.46-.16.3-.09.08,0,.05,0a1.21,1.21,0,0,1,.27-.18l.11-.1.1-.1,1.22-2.71,1.34-1.16c1.77-2.8,1-3.86,1-3.86a9.21,9.21,0,0,0-1.56-.28,5.9,5.9,0,0,0-2.56.47l-1.89,1c-1.82,1-2.21,3.29-2.81,3.15-.19,0-.14-.25-.34-.29-.66-.12-1.6,2.16-2.61,2.86a6.08,6.08,0,0,0-.65.53c-.12.11-.23.23-.47.5A.22.22,0,0,0,21.1,28.5Z" transform="translate(-0.57 -0.42)"/><path class="cls-1" d="M22.6,32.36l0,0h0a3,3,0,0,0,1.2-.57l.4-.36.22-.07q.8-.65,1.7-1.32t1.6-1.14l-6.27,3.59Z" transform="translate(-0.57 -0.42)"/><path class="cls-1" d="M17.52,33.21a.61.61,0,0,0,.2.5c.12.09.35.22,1-.07,1-.45,1-.27,1-.27.2-.07.47-.17.79-.32a7,7,0,0,0,1.69-1,6.16,6.16,0,0,0-.87.49l-2.64-.9a.54.54,0,0,0-.14.09.41.41,0,0,0-.12.29c0,.14-.14.43-.63,1" transform="translate(-0.57 -0.42)"/><path class="cls-1" d="M27.56,29l-6.47-.49s-1.72,1.51-1.6,1.88-1.15.8-.89,1.33,2.64.89,2.64.89Z" transform="translate(-0.57 -0.42)"/><path class="cls-1" d="M39,14.35c-.08-1.33,0-2.22-.76-3.07a13,13,0,0,1-2.17-3.23S39,14.94,39,14.35Z" transform="translate(-0.57 -0.42)"/><path class="cls-1" d="M29.88,6.37c.27-.36,3.1.19,6.19,1.68.54.26,1,.51,1.41.74.11.11.23.2.35.3l.23.18.05.07,0,.06a1,1,0,0,0,.17.26l.06.13,0,.13-.12,2.91L39,14.35c.35,3.17-.88,3.87-.88,3.87A9.27,9.27,0,0,1,36.53,18a5.21,5.21,0,0,1-2.14-1.29L33.11,15.1c-1.23-1.5-.53-3.76-1.15-3.84-.2,0-.25.18-.44.15-.66-.11-.49-2.53-1.1-3.51a5.09,5.09,0,0,1-.36-.71c-.06-.14-.1-.29-.2-.62A.21.21,0,0,1,29.88,6.37Z" transform="translate(-0.57 -0.42)"/><path class="cls-1" d="M33,3.32l0,0h0a2.56,2.56,0,0,1,.84.92l.21.46.17.14q.44.87,1,1.78t1,1.59L32,2.79Z" transform="translate(-0.57 -0.42)"/><path class="cls-1" d="M28.73.84a.71.71,0,0,1,.42-.4c.15,0,.43-.09.87.39.68.73.77.57.77.57a7.48,7.48,0,0,1,.58.56,5.84,5.84,0,0,1,1.08,1.52,5.16,5.16,0,0,1-.57-.75L29,2.68A.45.45,0,0,1,29,2.54a.4.4,0,0,1,0-.31,2.2,2.2,0,0,0-.11-1.16" transform="translate(-0.57 -0.42)"/><path class="cls-1" d="M36.06,8.05,29.88,6.33s-.89-2-.61-2.27-.69-1.13-.21-1.53,2.84.06,2.84.06Z" transform="translate(-0.57 -0.42)"/><path class="cls-1" d="M37.18,19.65l0-1.52,1.44-.35-.4,1s.21.19,0,.82c0,0,.39.34.38.46S37.18,19.65,37.18,19.65Z" transform="translate(-0.57 -0.42)"/><path class="cls-1" d="M26.62,17.44s-2.14-3.79-2-4.15L22,10.88,19.24,9A6.21,6.21,0,0,1,17.38,7.8a6.55,6.55,0,0,1-1-1.12A.43.43,0,0,1,16.78,6L18.7,6l3.48.85a1.59,1.59,0,0,1,1,0,4.78,4.78,0,0,1,1.33.76l.58.18s1.12.67,1,.85,2,1.3,1.74,3.68a9,9,0,0,1,0,2.36s.55,1.16.15,1.35l.33,1.41Z" transform="translate(-0.57 -0.42)"/><path class="cls-1" d="M23.8,18S16.7,22.37,15,21.52a9.07,9.07,0,0,0-1.42.2s-4.93-1-5.09-1.65-2.27-.59-2.27-.59S4.18,19.11,3.8,19a.83.83,0,0,1-.47-.58l1.89-.25,1.69,0v.14a35.15,35.15,0,0,1,5.58-.94A33.51,33.51,0,0,1,16,17.19c.43.28.7.26.87.18a2.14,2.14,0,0,1,.55-.25,1.35,1.35,0,0,1,.26,0,9.36,9.36,0,0,1,2.43-.18A8.74,8.74,0,0,1,23.8,18Z" transform="translate(-0.57 -0.42)"/><path class="cls-1" d="M17.06,14.46s-4.62.63-4.5-.2c0,0-1.17,0-1.33-.49,0,0-1.15-.25-1.36-.69a2.73,2.73,0,0,1-2.38-1s-.92-.41-.89-.77c0,0-1-.31-.86-.7l-.54-.18-.11-.34s-.62-.28-.89-1.84S3,6.79,3,6.15s.08-.22.08-.22-.51.38-1.46-2L.57,2s1.53.28,1.46,0c0,0,.8.21.89.26a2,2,0,0,0,.61,0,10.83,10.83,0,0,1,1.55.28l1.59.59s.35-.14.53,0S9.57,5,9.57,5s.85.7,1.14.88,2,1.12,1.8,1.43,1.26,1,.86,1.19,1.45,1.39,1.45,1.39A26.68,26.68,0,0,1,16.6,12,9,9,0,0,0,17,13.42s.81.63.41.83" transform="translate(-0.57 -0.42)"/></svg>