<?xml version="1.0" encoding="utf-8"?>
<!-- Generator: Adobe Illustrator 21.0.2, SVG Export Plug-In . SVG Version: 6.00 Build 0)  -->
<svg version="1.1" id="Слой_1" xmlns="http://www.w3.org/2000/svg" xmlns:xlink="http://www.w3.org/1999/xlink" x="0px" y="0px"
	 viewBox="0 0 190 179" style="enable-background:new 0 0 190 179;" xml:space="preserve">
<style type="text/css">
	.st0{fill:#ADC7AC;}
	.st1{fill:#FEE5E1;}
</style>
<g>
	<path class="st0" d="M49.8,36.6l5.4-2.4c-0.4,2.9-0.8,5.2-1.2,7l-1,4.2l-0.3,1.5c3,2.2,5.6,4.5,7.8,7s4.2,5.1,5.9,7.9
		c1.7,2.8,2.9,5.6,3.7,8.3c0.8,2.7,1.2,5.4,1.2,8.1c0,3.5-0.6,6.6-1.8,9.5s-3,5.4-5.3,7.6c-2.3,2.2-5,3.8-8.2,5
		c-3.1,1.2-6.5,1.8-10.1,1.8c-5.6,0-11.6-1.1-18.1-3.4l-1.2-0.4c-2.5,1.4-4.8,2.4-7.1,3.1s-4.6,1-7,1c-2.5,0-4.5-0.5-6.1-1.4
		S4,99.1,4,97.6c0-1.2,0.4-2.2,1.3-3.1c0.8-0.9,2-1.6,3.6-2.1c1.5-0.5,3.3-0.7,5.3-0.7c2.9,0,7.5,0.9,13.9,2.6l1.1,0.3
		c2.1-2.1,4.2-4.9,6.2-8.6c2.9-5.4,5.8-13.3,8.7-23.7c1.5-5.2,2.6-9.7,3.4-13.5c-2.4-1.9-5.2-3.6-8.2-5.1c-3-1.5-6-2.7-9-3.6
		c-3-0.9-5.6-1.3-7.9-1.3c-2.8,0-5,0.6-6.6,1.9c-1.6,1.3-2.5,3-2.5,5.2c0,1.4,0.4,2.7,1.3,4.1c0.8,1.4,2,2.7,3.6,3.9
		c1.5,1.2,3.4,2.4,5.7,3.4l-3.1,3c-2.9-1.5-5.2-3.5-6.9-5.8c-1.6-2.4-2.5-4.9-2.5-7.5c0-2.2,0.6-4.1,1.7-5.8c1.2-1.7,2.8-3,4.9-3.9
		c2.1-0.9,4.5-1.4,7.1-1.4c6.8,0,14.5,2.7,23.3,8.2C49.2,41.6,49.7,39.1,49.8,36.6z M24.8,98c-6-1.8-10.7-2.7-14.1-2.7
		c-1.5,0-2.6,0.2-3.4,0.7C6.4,96.4,6,97.1,6,98c0,0.9,0.6,1.7,1.9,2.4c1.3,0.7,2.9,1,4.8,1C16.7,101.4,20.7,100.2,24.8,98z
		 M31.2,95.3l1.3,0.4c4.2,1.3,7.6,2.2,10.3,2.7c2.7,0.5,5.3,0.8,7.7,0.8c3.5,0,6.6-0.8,9.4-2.5c2.8-1.7,5-4,6.7-6.9
		c1.6-3,2.5-6.2,2.5-9.7c0-9.2-5.9-18.7-17.6-28.4c-0.3,1.4-1,4.1-2.2,8.2c-1.9,6.4-3.5,11.2-4.8,14.4
		C40.8,83.9,36.3,90.9,31.2,95.3z"/>
</g>
<g>
	<path class="st1" d="M96.6,110.1c-0.1,0-0.1,0.1-0.1,0.1l-0.3,0.2c-3.7,1.9-7.7,2.9-11.9,2.9c-3.3,0-6.2-0.6-8.8-1.8
		c-2.6-1.2-4.5-2.9-5.9-5c-1.4-2.2-2.1-4.7-2.1-7.6c0-6.5,4.3-12.2,12.9-17.1l0.3-0.2v-0.2v-0.1c0-2.9,0.4-5.7,1.3-8.5s2-5,3.5-6.8
		c2.6-3.2,5.5-4.8,8.6-4.8c1.7,0,3.1,0.5,4.1,1.5c1.1,1,1.6,2.2,1.6,3.6c0,3.2-2.4,6.4-7.3,9.5c-0.8,0.5-2.3,1.4-4.5,2.7
		c-2.4,1.3-4,2.2-4.7,2.5c0.1,2.4,0.7,5.2,1.9,8.3c1.1,3.1,2.5,5.9,4.2,8.2c2.5,3.6,5.6,6.8,9.4,9.6c1.9-1.3,3.5-2.9,5-4.7
		c1.5-1.8,2.6-3.6,3.5-5.5s1.3-3.7,1.3-5.3c0-1.7-0.4-3.1-1.3-4.2c-0.9-1.1-2.1-1.6-3.5-1.6c-3.8,0-6.5,3.3-8.4,9.8l-2.1-3.1
		c0.5-1.7,1.3-3.3,2.3-4.7c1-1.4,2.2-2.4,3.5-3.2c1.3-0.8,2.7-1.1,4.1-1.1c1.3,0,2.5,0.3,3.5,1c1,0.6,1.9,1.5,2.5,2.7
		s0.9,2.4,0.9,3.8c0,1.4-0.3,2.8-0.8,4.3c-0.5,1.5-1.2,3-2.1,4.4c-0.9,1.4-2,2.9-3.3,4.3c-1.3,1.4-2.7,2.7-4,3.7l0.2,0.1
		c2.7,1.7,5.5,2.6,8.3,2.6c2.1,0,4-0.4,5.5-1.2c1.5-0.8,3-2.2,4.6-4.2l0.6,0.6c-3.2,4.8-7.3,7.3-12.5,7.3
		C103.2,113,99.9,112,96.6,110.1z M95.4,109.3c-4.1-2.7-7.4-6.4-10-11s-4.1-9.8-4.5-15.3l0-0.2c-6,3.8-9,8.5-9,14
		c0,4.1,1.4,7.5,4.3,10.2c2.9,2.7,6.5,4.1,10.8,4.1C89.9,111.1,92.7,110.5,95.4,109.3z M83.5,79.9c3.8-2,6.7-3.8,8.7-5.3
		c1.5-1.1,2.7-2.4,3.5-3.9c0.9-1.5,1.3-2.9,1.3-4.2c0-1.2-0.4-2-1.1-2.7s-1.7-1-2.8-1c-1.7,0-3.3,0.7-4.8,2.1
		c-1.5,1.4-2.7,3.3-3.6,5.7c-0.9,2.4-1.3,4.9-1.3,7.6v1L83.5,79.9z"/>
</g>
<g>
	<path class="st0" d="M148.3,151h-4.8l11.4-52c0.5-2.1,0.7-3.6,0.7-4.6c0-1.1-0.3-2-0.8-2.7c-0.5-0.7-1.3-1-2.3-1
		c-3,0-6.5,3.3-10.5,9.9c-1.6,2.6-3.3,5.6-5.1,9.2c-1.8,3.6-3.4,6.9-4.9,10.1c-1.4,3.2-2.9,6.7-4.3,10.5c-1.5,3.8-2.8,7.5-3.9,11.1
		l-2.6,8.4l-0.3,0.9h-4.2l0.3-1c2.2-7.6,4.7-18.2,7.4-31.7c1.1-5.1,2-9.9,2.8-14.4c1.1-6,1.6-10.2,1.6-12.6c0-1.2-0.1-2.3-0.4-3.3
		c-0.3-1-0.6-1.7-1.1-2.2s-1.1-0.7-1.7-0.7c-2.7,0-5,3.3-6.8,10c-1.4,5.1-2.4,9.7-2.8,13.8l-3.9-2.7c0.7-4.2,1.7-8,3.1-11.5
		c1.4-3.5,3-6.2,4.7-8.2s3.5-2.9,5.3-2.9c2.1,0,3.8,1.1,5,3.4c1.2,2.3,1.8,5.5,1.8,9.5c0,3.3-0.3,7-0.9,11c-0.4,2.7-0.9,5.4-1.4,8.1
		l-2.5,12.3l0.4-1.1c2.9-7.1,5.7-13.2,8.3-18.3c2.6-5.2,5.1-9.3,7.4-12.5c4.1-5.6,8-8.4,11.5-8.4c1.6,0,3,0.6,4,1.7
		c1,1.1,1.6,2.6,1.6,4.5c0,1.6-0.3,3.6-0.8,6.2L148.3,151z"/>
</g>
<g>
	<path class="st0" d="M72.6,166.8c-1.8,1-2.9,1.7-4.8,1.8c-0.3,0-4,0.3-6.4,1.1C61.4,169.7,73.4,166.4,72.6,166.8z"/>
	<path class="st0" d="M76.5,163.4l-15.1,6.3l11.1-2.9c4.5-2.2,4.1-3.5,4.1-3.5s-0.8-0.4-1.9-0.8c-1.6-0.5-3.8-0.4-3.8-0.4
		c0,0-0.8,0.1-0.8,0.1s0.3,0,0.8-0.1c-1.1,0.1-2.2,0.2-3.3,0.4c-3.5,0.6-5.2,1.4-6.2,2.2c-0.1,0-0.1,0.1-0.1,0.1c0,0,0,0,0,0
		c-0.1,0.1-0.5,0-0.5,0c-0.6-0.1-3.3,1-5.3,1.4c-0.4,0.1-0.9,0.2-1.3,0.3c-0.2,0.1-0.5,0.2-1,0.3c-0.1,0-0.2,0.1-0.2,0.2
		c-0.1,0.2,1.6,0.9,8.4,2.6"/>
	<path class="st0" d="M52.2,171.4C52.2,171.4,52.2,171.4,52.2,171.4C52.2,171.4,52.2,171.4,52.2,171.4c1,0,1.6-0.1,2-0.2
		c0.1,0,0.8-0.2,0.8-0.2c0.1,0,0.2,0,0.4,0c1.1-0.3,2.1-0.5,3.3-0.7c1-0.2,2-0.4,3-0.6c-3.7,0.5-7.5,1-11.2,1.5
		C51.1,171.2,51.6,171.3,52.2,171.4z"/>
	<path class="st0" d="M44.6,170.6c-0.1,0.1-0.2,0.4-0.1,0.6c0.1,0.1,0.3,0.3,1.4,0.3c1.6-0.1,1.5,0,1.5,0c0.3,0,0.8,0,1.3-0.1
		c1.7-0.1,3.1-0.4,3.1-0.5c0,0-0.3,0-1.6,0.2l-2.9-1.7c0,0-0.1,0-0.3,0c-0.2,0.1-0.3,0.2-0.4,0.2c-0.1,0.1-0.5,0.4-1.6,0.8"/>
	<path class="st0" d="M61.4,169.7l-8.5-2.6c0,0-3.5,0.9-3.6,1.3c-0.1,0.4-2.2,0.4-2.2,1c0,0.6,3,1.7,3,1.7L61.4,169.7z"/>
</g>
<g>
	<path class="st0" d="M88.6,161c0.7-1.4,1.4-2.3,1-3.5c-0.1-0.2-1-2.5-0.7-4.1C88.8,153.4,88.2,161.6,88.6,161z"/>
	<path class="st0" d="M85,164.5l3.8-11.1l-0.3,7.6c-1.6,3.4-3.6,3.7-3.6,3.7s-0.9-0.3-1.9-0.8c-1.4-0.8-1.9-2.1-1.9-2.1
		c0,0-0.2-0.5-0.2-0.5s0.1,0.2,0.2,0.5c-0.2-0.7-0.4-1.4-0.7-2.1c-0.4-2.2,0.2-3.6,1-4.4c0-0.1,0.1-0.1,0.1-0.1c0,0,0,0,0,0
		c0.1-0.1-0.1-0.3-0.1-0.3c-0.3-0.3,0.3-2.3,0.1-3.6c0-0.3,0-0.6,0-0.9c0-0.2,0.1-0.3,0.1-0.7c0-0.1,0.1-0.2,0.2-0.2
		c0.3-0.1,1.9,0.6,6.9,4"/>
	<path class="st0" d="M87.9,147.4C87.9,147.4,87.9,147.4,87.9,147.4C87.9,147.4,87.9,147.4,87.9,147.4c0.4,0.6,0.5,1,0.5,1.2
		c0,0.1,0,0.6,0,0.6c0,0.1,0.1,0.1,0.1,0.2c0,0.7,0,1.4,0.1,2.2c0.1,0.7,0.1,1.4,0.2,2c-0.6-2.4-1.3-4.7-1.9-7.1
		C87.3,146.8,87.6,147.1,87.9,147.4z"/>
	<path class="st0" d="M84,143.3c0.2-0.1,0.5-0.3,0.8-0.3c0.2,0,0.6,0.1,0.9,0.7c0.4,1,0.6,0.9,0.6,0.9c0.1,0.2,0.3,0.5,0.4,0.8
		c0.4,1,0.5,2,0.4,2c0,0-0.1-0.2-0.3-1l-3.6-1.1c0,0,0-0.1,0-0.2c0-0.2,0.2-0.3,0.2-0.3c0.2-0.1,0.4-0.4,0.6-1.2"/>
	<path class="st0" d="M88.8,153.4l-6.9-4c0,0,0.1-2.4,0.7-2.6c0.6-0.2-0.2-1.4,0.7-1.7c0.9-0.2,3.6,1.1,3.6,1.1L88.8,153.4z"/>
</g>
<path class="st0" d="M36.4,140.8c-0.1,0.2,0.1,0.3,0.2,0.4c0.3,0.5,0.7,0.9,1.1,1.4c0.1,0.1,0.3,0.1,0.4,0.2
	c0.4,0.2,0.6,0.5,0.7,0.8c0,0,0.1,0.1,0.1,0.1c0.1,0.1,0.3,0.2,0.4,0.3c0.3,0.2,0.5,0.4,0.8,0.5c0.2,0.1,0.4,0.3,0.5,0.4
	c1.8,1.3,3.3,2.4,3.3,2.4c0.6,0.3,1.3,0.6,1.9,1c1.2,0.3,4.4,2.5,5.7,2.9c0.4,0.1,0.8,0.2,1.1,0.4c0.2,0.2,0.3,0.4,0.7,0.5
	c0.1,0,0.3,0,0.4,0c-0.1,0.2,6.2,2.6,6.2,2.6c1,0.3,2.3,0.8,3.6,1.5c2,1,2.3,1.6,4.5,2.7c1.2,0.6,1.4,0.6,3.7,1.5
	c1.3,0.5,3.1,1.3,5.2,2.3c1.4,0.8,3.2,1.7,5.2,2.5c6.3,2.5,12.7,3.3,17.1,3.5c-1.1-0.4-1.9-0.7-2.5-0.9c-1.9-0.7-2.1-0.8-2.8-1
	c-0.6-0.1-1.1-0.1-1.8-0.4c-0.5-0.2-0.6-0.2-1.1-0.4c-0.5-0.1-0.7-0.1-1.7-0.3c-0.4-0.1-0.9-0.1-1.3-0.2c-0.6-0.1-1.2-0.3-2.1-0.6
	c-2.3-0.9-7.9-3.8-11.7-5.6c-0.5-0.2-1.3-0.6-2.2-0.9c-0.3,0-0.6,0-0.9-0.1c-1.3-0.4-2.1-1.1-3.1-1.7c-0.2-0.1-0.3-0.2-0.4-0.3
	c-0.5-0.2-0.9-0.5-1.3-0.7c-0.3-0.1-0.7-0.2-1-0.2c-0.3-0.1-0.5-0.2-0.7-0.3c-1.5-0.4-3.1-0.7-4.4-1.5c-0.2-0.1-0.4-0.3-0.5-0.4
	c-0.2,0-0.5-0.1-0.6-0.2c-0.2-0.1-0.5-0.2-0.7-0.3c-0.1,0-0.1-0.1-0.2-0.1c-1-0.4-1.9-0.9-2.7-1.4c-0.2-0.1-0.3-0.2-0.3-0.4
	c-0.1-0.1-0.2-0.1-0.3-0.2c-0.1,0-0.2-0.1-0.2-0.1c-0.3-0.1-0.6-0.3-0.9-0.4c-0.3,0-0.6,0-0.8-0.1c-1.3-0.4-2.6-0.7-3.8-1.2
	c-0.4-0.2-0.7-0.4-0.8-0.6c-1.4-0.6-2.7-1.4-3.8-2.2c-0.1-0.1-0.2-0.2-0.3-0.3c-2-1.4-3.8-3.1-5.7-4.4l-0.7-0.4c0,0-0.1,0-0.1,0
	C37.1,140.4,36.5,140.6,36.4,140.8z"/>
<g>
	<path class="st0" d="M57.8,159.9c-2,1-3.1,1.7-5.3,1.7c-0.4,0-4.8,0-7.5,0.7C45,162.3,58.7,159.5,57.8,159.9z"/>
	<path class="st0" d="M34.2,158.4c-0.1,0.5,4.5,2.5,10.8,3.9c1.1,0.2,2.1,0.5,3,0.6c0.3,0,0.6,0,0.9,0.1c0.2,0,0.4,0,0.6,0.1
		c0,0,0,0,0.2,0c0,0,0.1,0,0.1,0c0.2,0,0.4-0.1,0.6-0.1c0.1,0,0.2,0,0.3-0.1c0.1,0,0.2,0,0.2-0.1l3.9-2.4l3.1-0.6
		c4.9-2.2,4.2-3.7,4.2-3.7s-1.1-0.6-2.5-1.1c-2.1-0.8-4.7-0.8-4.7-0.8c-1.3,0-2.6,0.1-3.9,0.1c-3.8,0.1-6,2.5-7,2
		c-0.3-0.1-0.1-0.3-0.4-0.5c-1.1-0.5-4.2,1.6-6.4,1.8c-0.5,0.1-1,0.1-1.5,0.2c-0.3,0.1-0.5,0.1-1.1,0.3
		C34.3,158.3,34.2,158.4,34.2,158.4z"/>
	<path class="st0" d="M34.2,163.5C34.2,163.5,34.2,163.5,34.2,163.5C34.1,163.5,34.1,163.5,34.2,163.5c1.2,0.1,1.9,0.1,2.4,0
		c0.1,0,0.9-0.2,0.9-0.2c0.1,0,0.3,0,0.4,0c1.2-0.2,2.5-0.4,3.8-0.6c1.2-0.2,2.4-0.3,3.5-0.4c-4.4,0.2-8.8,0.5-13.2,0.7
		C32.8,163.2,33.5,163.3,34.2,163.5z"/>
	<path class="st0" d="M24.9,161.8c-0.1,0.2-0.2,0.4,0,0.7c0.2,0.2,0.5,0.4,1.7,0.4c2,0,1.9,0.2,1.9,0.2c0.4,0,0.9,0.1,1.6,0.1
		c2,0,3.6-0.2,3.6-0.3c0,0-0.3,0-1.8,0.1l-4-2.3c0,0-0.1,0-0.3,0c-0.3,0.1-0.4,0.2-0.4,0.3c-0.1,0.2-0.5,0.4-1.8,0.8"/>
	<path class="st0" d="M45,162.3l-10.8-3.9c0,0-4,0.8-4,1.2s-2.5,0.3-2.4,1c0.1,0.7,4,2.3,4,2.3L45,162.3z"/>
</g>
<g>
	<g>
		<path class="st0" d="M74.5,152.1c0.8-1.5,1.4-2.4,0.7-3.8c-0.1-0.2-1.6-2.8-1.6-4.7C73.7,143.7,74.2,152.8,74.5,152.1z"/>
		<path class="st0" d="M64.1,138.7c0.7-0.3,5.2,1.8,9.5,5c0.8,0.6,1.4,1.1,1.9,1.5c0.1,0.2,0.3,0.3,0.4,0.5c0.1,0.1,0.2,0.2,0.3,0.3
			c0,0,0,0,0,0.1c0,0,0,0,0,0.1c0,0.1,0.1,0.3,0.1,0.4c0,0.1,0,0.1,0,0.2c0,0.1,0,0.1,0,0.2l-2.1,3.1l0.2,2
			c-1.5,3.7-4.1,3.8-4.1,3.8s-1.2-0.4-2.5-1.1c-1.9-1-2.8-2.5-2.8-2.5c-0.4-0.8-0.8-1.6-1.2-2.4c-1.1-2.3,1.6-4.4,0.6-4.8
			c-0.3-0.1-0.5,0.1-0.9-0.1c-1.1-0.5,0.8-3,0.5-4.4c-0.1-0.3-0.1-0.6-0.2-1c0-0.2,0-0.4,0.1-0.8C64,138.8,64,138.7,64.1,138.7z"/>
		<path class="st0" d="M71.6,136.9C71.6,136.9,71.6,136.9,71.6,136.9C71.6,136.9,71.6,136.9,71.6,136.9c0.6,0.7,0.8,1.1,0.8,1.4
			c0,0.1,0,0.6,0,0.6c0.1,0.1,0.1,0.2,0.2,0.2c0.1,0.8,0.3,1.6,0.5,2.5c0.2,0.8,0.4,1.5,0.6,2.2c-1.2-2.7-2.3-5.4-3.5-8.1
			C70.7,136.2,71.1,136.6,71.6,136.9z"/>
		<path class="st0" d="M65.9,132c0.2-0.1,0.6-0.3,1-0.2c0.3,0,0.8,0.1,1.2,0.9c0.7,1.2,0.9,1,0.9,1c0.2,0.2,0.4,0.5,0.6,0.9
			c0.7,1.2,0.9,2.2,0.9,2.2c0,0-0.1-0.2-0.5-1.1l-4.9-1.5c0,0-0.1-0.1-0.1-0.2c0-0.2,0.2-0.3,0.3-0.3c0.2-0.1,0.4-0.4,0.6-1.3"/>
		<path class="st0" d="M73.7,143.7l-9.5-5.1c0,0-0.2-2.6,0.5-2.8c0.7-0.2-0.4-1.6,0.7-1.8c1.1-0.2,4.9,1.5,4.9,1.5L73.7,143.7z"/>
	</g>
	<path class="st0" d="M67.9,157l0.9-1.7l2.7,0.4l-1.4,0.9c0,0,0.2,0.3-0.5,0.9c0,0,0.4,0.6,0.3,0.7C69.9,158.3,67.9,157,67.9,157z"
		/>
</g>
<path class="st0" d="M51.1,149.1c0,0-1.2-5.3-0.7-5.6l-2.9-4l-3.5-3.5c-0.7-0.5-1.7-1.2-2.4-2.2c-0.5-0.6-0.8-1.2-0.9-1.7
	c-0.1-0.2-0.1-0.4,0.2-0.5c0.3-0.2,0.7-0.2,1-0.1c1.1,0.3,2.2,0.7,3.3,1l5.4,2.7c0,0,0.7,0,1.6,0.5c0.9,0.5,1.8,1.5,1.8,1.5l0.9,0.5
	c0,0,1.5,1.3,1.1,1.4c-0.3,0.1,2.6,2.5,0.5,4.9c0,0-1.1,2.3-1.7,2.6c0,0,0.2,1.6-0.6,1.6l-0.4,1.7L51.1,149.1z"/>
<path class="st0" d="M45.9,148.3c0,0-15.2,1.2-17.5-0.6c0,0-1.6-0.4-2.6-0.5c0,0-7.9-3.6-7.7-4.4c0.2-0.8-3.5-1.8-3.5-1.8
	s-3.3-1.5-3.9-1.8c-0.6-0.3-0.4-0.9-0.4-0.9l3.4,0.7c2.9,0.8,2.9,0.8,2.9,0.8l-0.1,0.2c3.1,0.4,6.6,1,10.3,1.8
	c2.2,0.5,4.3,1.1,6.1,1.7c0.6,0.5,1,0.6,1.4,0.6c0.2,0,0.6-0.1,1.1,0c0.2,0,0.4,0.1,0.5,0.1c1.2,0.2,2.7,0.5,4.3,1
	C43,146.2,44.8,147.4,45.9,148.3z"/>
<path class="st0" d="M36.6,141c0,0-8.4-1.7-7.6-2.5c0,0-2-0.6-2-1.2c0,0-1.8-0.9-1.9-1.5c0,0-2.1-0.3-3.4-2.3c0,0-1.3-0.9-1-1.3
	c0,0-1.5-0.9-1-1.2l-0.8-0.5l0-0.4c0,0-0.9-0.6-0.3-2.5c0.6-1.8-1.2-2.2-0.7-2.9c0.5-0.7,0.3-0.2,0.3-0.2s-1.1,0.2-1.2-3l-0.6-2.6
	c0,0,2.4,1.1,2.5,0.8c0,0,1.2,0.6,1.4,0.7c0.1,0.1,1.1,0.3,1.1,0.3s2.3,0.9,2.5,1.1c0,0,2.3,1.4,2.3,1.5s0.7,0,0.9,0.3
	c0.2,0.3,2.9,3.2,2.9,3.2s1,1.2,1.4,1.6c0.4,0.3,2.7,2.2,2.1,2.5s1.5,1.8,0.7,1.7c-0.8,0,1.6,2.3,1.6,2.3s1.8,3.2,1.7,3.3
	c-0.2,0.1-0.2,1.7-0.2,1.7s1,1.1,0.2,1.1"/>
<g>
	<g>
		<path class="st0" d="M150.8,40.6c0.8-1.5,1.4-2.4,1.2-3.6c0-0.2-0.6-2.5-0.3-4.3C151.6,32.7,150.4,41.2,150.8,40.6z"/>
		<path class="st0" d="M147.3,44.3l4.3-11.6l-0.8,7.9c-1.7,3.6-3.5,3.9-3.5,3.9s-0.8-0.3-1.6-0.8c-1.2-0.8-1.6-2.1-1.6-2.1
			c0,0-0.1-0.5-0.1-0.5s0,0.2,0.1,0.5c-0.1-0.7-0.3-1.4-0.4-2.1c-0.2-2.3,0.5-3.7,1.2-4.6c0-0.1,0.1-0.1,0.1-0.1c0,0,0,0,0,0
			c0.1-0.1-0.1-0.3-0.1-0.3c-0.3-0.3,0.4-2.4,0.4-3.8c0-0.3,0-0.6,0.1-0.9c0-0.2,0.1-0.3,0.2-0.7c0-0.1,0.1-0.2,0.2-0.2
			c0.3-0.1,1.6,0.6,5.8,4"/>
		<path class="st0" d="M151.3,26.5C151.3,26.5,151.3,26.4,151.3,26.5C151.3,26.4,151.3,26.4,151.3,26.5c0.3,0.6,0.4,1,0.3,1.3
			c0,0.1-0.1,0.6-0.1,0.6c0,0.1,0.1,0.1,0.1,0.2c-0.1,0.7-0.1,1.5-0.1,2.3c0,0.7,0,1.4,0,2.1c-0.4-2.4-0.7-4.9-1.1-7.3
			C150.8,25.9,151,26.2,151.3,26.5z"/>
		<path class="st0" d="M148.1,22.3c0.2-0.1,0.4-0.3,0.7-0.3c0.2,0,0.5,0.1,0.7,0.7c0.3,1,0.5,0.9,0.5,0.9c0.1,0.2,0.2,0.5,0.3,0.8
			c0.3,1.1,0.3,2,0.2,2c0,0-0.1-0.2-0.2-1l-3.1-1c0,0,0-0.1,0-0.2c0-0.2,0.2-0.3,0.2-0.3c0.2-0.1,0.4-0.5,0.6-1.3"/>
		<path class="st0" d="M151.6,32.7l-5.8-4c0,0,0.3-2.5,0.8-2.7s0-1.5,0.8-1.7c0.8-0.3,3.1,1,3.1,1L151.6,32.7z"/>
	</g>
	<g>
		<path class="st0" d="M147.4,52.6c-1.7,1-2.7,1.8-4.4,2c-0.3,0-3.6,0.5-5.8,1.3C137.3,55.9,148.2,52.1,147.4,52.6z"/>
		<path class="st0" d="M151.2,48.9l-13.9,6.9l10.1-3.3c4.2-2.4,4-3.7,4-3.7s-0.7-0.4-1.6-0.8c-1.4-0.5-3.4-0.3-3.4-0.3
			c0,0-0.7,0.1-0.7,0.1s0.2,0,0.7-0.1c-1,0.2-2,0.3-3,0.5c-3.1,0.7-4.7,1.6-5.6,2.4c-0.1,0.1-0.1,0.1-0.1,0.1c0,0,0,0,0,0
			c-0.1,0.1-0.4,0.1-0.4,0.1c-0.5-0.1-3,1.1-4.8,1.6c-0.4,0.1-0.8,0.2-1.2,0.3c-0.2,0.1-0.4,0.2-0.9,0.4c-0.1,0.1-0.2,0.1-0.2,0.2
			c-0.1,0.2,1.4,0.9,7.3,2.5"/>
		<path class="st0" d="M129,57.8C128.9,57.8,128.9,57.8,129,57.8C128.9,57.8,128.9,57.8,129,57.8c0.9,0,1.4-0.1,1.8-0.2
			c0.1,0,0.7-0.2,0.7-0.2c0.1,0,0.2,0,0.3,0c1-0.3,1.9-0.6,3-0.9c0.9-0.3,1.9-0.5,2.7-0.7c-3.4,0.6-6.7,1.2-10.1,1.8
			C128,57.7,128.5,57.7,129,57.8z"/>
		<path class="st0" d="M122.3,57.2c-0.1,0.1-0.2,0.4-0.1,0.6c0.1,0.1,0.3,0.3,1.2,0.2c1.5-0.2,1.3,0,1.3,0c0.3,0,0.7,0,1.2-0.1
			c1.5-0.2,2.8-0.5,2.8-0.6c0,0-0.3,0-1.4,0.2l-2.5-1.7c0,0-0.1,0-0.2,0.1c-0.2,0.1-0.3,0.2-0.4,0.3c-0.1,0.1-0.5,0.4-1.5,0.9"/>
		<path class="st0" d="M137.3,55.9l-7.3-2.5c0,0-3.2,1-3.3,1.5s-2,0.5-2,1.1s2.5,1.7,2.5,1.7L137.3,55.9z"/>
	</g>
	<path class="st0" d="M106.3,28.7c0.2-0.1,0.4,0,0.6,0c0.7,0,1.4,0.1,2.1,0.2c0.1,0.1,0.2,0.1,0.4,0.2c0.4,0.2,0.8,0.2,1.2,0.1
		c0.1,0,0.1,0,0.2,0c0.2,0,0.3,0.1,0.5,0.1c0.3,0.1,0.6,0.2,0.9,0.3c0.2,0.1,0.4,0.1,0.7,0.1c2.2,0.6,4.1,1.2,4.1,1.2
		c0.6,0.3,1.2,0.6,1.8,0.8c0.7,0.6,4.5,1.8,5.4,2.4c0.2,0.2,0.4,0.4,0.9,0.5c0.3,0.1,0.6,0.1,0.9,0.3C126,35,126,35,126,35.1
		c0.2-0.1,5.1,2.8,5.1,2.8c0.7,0.5,1.6,1.1,2.9,1.7c1.9,0.8,2.8,0.8,4.8,1.7c1.1,0.5,1.2,0.7,2.9,1.7c1.1,0.6,2.5,1.4,4.4,2.3
		c1.5,0.6,3.1,1.3,4.7,2.2c5,2.9,7.7,6.5,9.1,9.1c-0.8-0.5-1.4-0.9-1.9-1.2c-1.4-0.9-1.7-1-2-1.4c-0.3-0.3-0.4-0.6-0.9-1
		c-0.4-0.3-0.5-0.3-0.8-0.5c-0.3-0.2-0.3-0.4-0.8-0.9c-0.2-0.2-0.4-0.5-0.6-0.7c-0.3-0.3-0.7-0.6-1.4-1.1c-1.9-1.1-7.2-3.4-10.5-5.1
		c-0.5-0.2-1.1-0.6-1.8-1c-0.1-0.2-0.2-0.3-0.4-0.5c-0.8-0.6-2-0.9-3.1-1.2c-0.2-0.1-0.4-0.1-0.6-0.1c-0.4-0.2-0.9-0.4-1.3-0.5
		c-0.2-0.2-0.4-0.4-0.6-0.5c-0.2-0.1-0.4-0.2-0.6-0.3c-1-0.8-1.8-1.6-3.1-2.1c-0.2-0.1-0.5-0.1-0.7-0.1c-0.1-0.1-0.3-0.2-0.5-0.3
		c-0.1-0.1-0.4-0.2-0.6-0.3c-0.1,0-0.2,0-0.2-0.1c-0.8-0.4-1.7-0.9-2.6-1.1c-0.2-0.1-0.4-0.1-0.6-0.1c-0.1,0-0.2-0.1-0.3-0.1
		c-0.1,0-0.2-0.1-0.2-0.1c-0.3-0.1-0.5-0.2-0.8-0.4c-0.1-0.2-0.2-0.3-0.4-0.5c-0.8-0.6-1.7-1.3-2.6-1.8c-0.3-0.2-0.7-0.3-1-0.3
		c-1.2-0.6-2.5-1.1-4-1.5c-0.1,0-0.3-0.1-0.4-0.1c-2.5-0.7-5.2-1.2-7.4-1.9l-0.7-0.3c0,0-0.1,0-0.1-0.1
		C105.9,29.3,106,28.8,106.3,28.7z"/>
	<g>
		<path class="st0" d="M137.4,34.6c0.8-1.6,1.4-2.6,0.9-3.9c-0.1-0.2-1.3-2.9-1.1-4.8C137.1,25.9,137.1,35.3,137.4,34.6z"/>
		<path class="st0" d="M128.9,21.1c0.6-0.3,4.6,1.7,8.2,4.8c0.6,0.6,1.2,1.1,1.6,1.5c0.1,0.2,0.2,0.3,0.3,0.5
			c0.1,0.1,0.2,0.2,0.2,0.3c0,0,0,0,0,0.1c0,0,0,0,0,0.1c0,0.1,0,0.3,0.1,0.4c0,0.1,0,0.1,0,0.2c0,0.1,0,0.1,0,0.2l-2.1,3.3l0.1,2.1
			c-1.6,3.8-3.9,4.1-3.9,4.1s-1.1-0.4-2.2-1c-1.6-0.9-2.4-2.5-2.4-2.5c-0.3-0.8-0.6-1.6-0.9-2.4c-0.9-2.3,1.7-4.6,0.8-5
			c-0.3-0.1-0.5,0.1-0.8,0c-0.9-0.4,0.9-3.2,0.6-4.6c-0.1-0.3-0.1-0.7-0.1-1c0-0.2,0-0.4,0.1-0.8C128.8,21.2,128.8,21.1,128.9,21.1z
			"/>
		<path class="st0" d="M135.7,19C135.7,19,135.7,19,135.7,19C135.6,18.9,135.7,19,135.7,19c0.5,0.7,0.7,1.1,0.7,1.4
			c0,0.1,0,0.6,0,0.6c0.1,0.1,0.1,0.2,0.2,0.2c0.1,0.8,0.2,1.7,0.3,2.5c0.1,0.8,0.2,1.6,0.4,2.3c-0.9-2.7-1.8-5.5-2.7-8.2
			C134.9,18.3,135.3,18.6,135.7,19z"/>
		<path class="st0" d="M130.8,14.1c0.2-0.1,0.5-0.3,0.9-0.3c0.3,0,0.7,0.1,1.1,0.9c0.5,1.2,0.8,1,0.8,1c0.1,0.2,0.3,0.5,0.5,0.9
			c0.6,1.2,0.7,2.3,0.6,2.3c0,0-0.1-0.2-0.4-1.1l-4.2-1.4c0,0,0-0.1,0-0.2c0-0.2,0.2-0.3,0.2-0.3c0.2-0.1,0.4-0.5,0.6-1.4"/>
		<path class="st0" d="M137.1,25.9L129,21c0,0-0.1-2.7,0.6-2.9c0.6-0.2-0.3-1.6,0.7-1.9c1-0.2,4.2,1.4,4.2,1.4L137.1,25.9z"/>
	</g>
	<g>
		<g>
			<path class="st0" d="M131.5,47.8c-1.8,1.1-2.9,1.9-4.8,2c-0.3,0-4.2,0.2-6.7,1C120,50.8,132.3,47.4,131.5,47.8z"/>
			<path class="st0" d="M110.6,47.2c-0.1,0.5,3.9,2.4,9.4,3.6c1,0.2,1.8,0.4,2.6,0.5c0.3,0,0.5,0,0.8,0c0.2,0,0.3,0,0.5,0
				c0,0,0,0,0.1,0c0,0,0.1,0,0.1,0c0.2,0,0.4-0.1,0.5-0.1c0.1,0,0.2,0,0.2-0.1c0.1,0,0.1,0,0.2-0.1l3.6-2.6l2.8-0.7c4.5-2.4,4-4,4-4
				s-0.9-0.6-2.2-1.1c-1.8-0.7-4.2-0.6-4.2-0.6c-1.2,0.1-2.3,0.2-3.5,0.3c-3.4,0.3-5.5,2.8-6.3,2.4c-0.3-0.1-0.1-0.4-0.3-0.5
				c-0.9-0.4-3.8,1.8-5.8,2.1c-0.4,0.1-0.9,0.2-1.3,0.3c-0.2,0.1-0.5,0.2-1,0.4C110.7,47.1,110.6,47.2,110.6,47.2z"/>
			<path class="st0" d="M110.3,52.4C110.3,52.4,110.3,52.4,110.3,52.4C110.3,52.4,110.3,52.4,110.3,52.4c1.1,0.1,1.7,0,2.1-0.1
				c0.1,0,0.8-0.2,0.8-0.2c0.1,0,0.3,0,0.4,0c1.1-0.3,2.2-0.5,3.4-0.7c1.1-0.2,2.1-0.4,3.2-0.6c-3.9,0.4-7.9,0.8-11.8,1.2
				C109.1,52.2,109.7,52.3,110.3,52.4z"/>
			<path class="st0" d="M102.1,51c-0.1,0.2-0.2,0.5,0,0.7c0.1,0.2,0.4,0.4,1.5,0.4c1.7-0.1,1.6,0.1,1.6,0.1c0.3,0,0.8,0,1.4,0
				c1.8-0.1,3.2-0.4,3.2-0.4c0,0-0.3,0-1.6,0.2l-3.4-2.3c0,0-0.1,0-0.3,0c-0.2,0.1-0.3,0.2-0.4,0.3c-0.1,0.2-0.5,0.4-1.6,0.9"/>
			<path class="st0" d="M120,50.8l-9.4-3.6c0,0-3.6,1-3.6,1.4c-0.1,0.5-2.3,0.4-2.2,1.1s3.4,2.3,3.4,2.3L120,50.8z"/>
		</g>
		<path class="st0" d="M136.3,41.8l-2,1.3l1.2,1.5l0.8-1.2c0,0,0.5,0,1.1-0.7c0,0,0.9,0,1-0.1C138.5,42.5,136.3,41.8,136.3,41.8z"/>
	</g>
	<path class="st0" d="M121.1,35.1c0,0-7.4,1.5-7.7,1.9l-6.1-0.1l-5.7-0.6c-0.9-0.2-2.1-0.5-3.7-0.5c-1,0-1.9,0.1-2.6,0.2
		c-0.3,0-0.6,0.1-0.7,0.3c-0.2,0.2-0.1,0.5,0.2,0.6c0.8,0.5,1.5,1,2.3,1.6l5.2,2.1c0,0,0.2,0.4,1.2,0.8c0.9,0.4,2.5,0.4,2.5,0.4
		l0.9,0.3c0,0,2.2,0.3,2.2,0.1c0.1-0.3,4,0.5,6.8-1.7c0,0,2.8-1.6,3-2.1c0,0,2.1-0.5,1.9-1l2.2-0.9L121.1,35.1z"/>
	<path class="st0" d="M118.4,32.3c0,0-2.6-9.6-5.6-10.2c0,0-1-0.8-1.4-1.3c0,0-7-3.2-8.1-2.8c-1.1,0.5-3.4-1.4-3.4-1.4
		s-2.9-1.4-3.5-1.5c-0.6-0.2-1.3,0.1-1.3,0.1l1.9,1.8c1.9,1.4,1.9,1.4,1.9,1.4l0.2-0.1c1.4,1.7,3.1,3.5,5.3,5.4
		c1.3,1.1,2.7,2.1,3.9,3c0.9,0.1,1.2,0.4,1.2,0.6c0.1,0.1,0.1,0.4,0.3,0.7c0.1,0.1,0.2,0.2,0.3,0.2c0.6,0.7,1.4,1.4,2.6,2.1
		C114.8,31.5,117,32,118.4,32.3z"/>
	<path class="st0" d="M108,29.6c0,0-4.6-4.3-5.5-3.5c0,0-1.4-0.9-2.2-0.7c0,0-1.7-0.7-2.5-0.5c0,0-0.9-1.1-4.1-1.1
		c0,0-1.6-0.4-2-0.1c0,0-1.6-0.6-1.9-0.1l-0.9-0.3l-0.6,0.2c0,0-1.1-0.3-3.4,0.8s-3.3,0.2-4.1,0.8c-0.8,0.6-0.2,0.3-0.2,0.3
		s-0.1-0.7-4.3,0.5l-3.6,0.7c0,0,2.1,1,1.8,1.2c0,0,1.2,0.5,1.4,0.5c0.2,0,0.6,0.5,0.6,0.5s1.9,1,2.2,1c0,0,2.6,0.8,2.6,0.8
		s0.2,0.4,0.7,0.4c0.4,0,5.1,0.4,5.1,0.4s1.9,0.1,2.5,0.2c0.6,0.1,3.8,0.7,3.9,0.2c0.2-0.4,2.8,0.2,2.5-0.3c-0.3-0.5,3.5,0,3.5,0
		s4.8-0.2,4.8-0.4c0-0.1,2.3-0.8,2.3-0.8s1.8,0.1,1.6-0.4"/>
</g>
<path class="st0" d="M148.7,74.1l2.8-1c0.1-0.4,1.4-3.6,4.8-4.7c2.7-0.8,5.7,0,7.7,2c0.8,1.1,1.5,2,2,2.8c0.7,1.1,1.2,2,1.6,2.7
	c0.5,0.9,0.9,1.6,1.1,2.2c0.6,0.7,1.6,1.6,3.1,2.4c1.4,0.7,2.7,1,3.6,1.1c1.4-0.1,2.1-0.6,2.5-0.9c0.1-0.1,0.2-0.2,0.3-0.2
	c0.1,0.1-0.9,1.5-1.8,2.7c0.8,0.2,1.5,0.4,2.3,0.6c-0.4,0.7-1.1,1.8-2.1,2.8c-3,2.9-6.8,3.2-8.8,3.4c-2.6,0.2-7.8,0.7-12.1-3
	c-3.8-3.4-4.5-9.6-4.4-9.9L148.7,74.1z"/>
</svg>
