<?xml version="1.0" encoding="utf-8"?>
<!-- Generator: Adobe Illustrator 21.0.2, SVG Export Plug-In . SVG Version: 6.00 Build 0)  -->
<svg version="1.1" id="Слой_1" xmlns="http://www.w3.org/2000/svg" xmlns:xlink="http://www.w3.org/1999/xlink" x="0px" y="0px"
	 viewBox="0 0 120 100" style="enable-background:new 0 0 120 100;" xml:space="preserve">
<style type="text/css">
	.st0{fill:#ADC7AC;}
	.st1{fill:#FEE5E1;}
</style>
<g>
	<path class="st0" d="M35.6,6.3l4-1.6c-0.3,1.9-0.6,3.4-0.9,4.6L38,12.1l-0.3,1c2.2,1.4,4.1,3,5.8,4.6c1.7,1.6,3.1,3.4,4.3,5.2
		c1.2,1.8,2.1,3.6,2.7,5.4c0.6,1.8,0.9,3.5,0.9,5.3c0,2.3-0.5,4.3-1.4,6.2c-0.9,1.9-2.2,3.5-3.9,5c-1.7,1.4-3.7,2.5-6,3.3
		c-2.3,0.8-4.8,1.2-7.4,1.2c-4.1,0-8.5-0.7-13.3-2.2l-0.9-0.3c-1.8,0.9-3.6,1.6-5.2,2s-3.4,0.7-5.2,0.7c-1.8,0-3.3-0.3-4.5-0.9
		S2,47.1,2,46.1c0-0.8,0.3-1.5,0.9-2c0.6-0.6,1.5-1,2.6-1.4c1.1-0.3,2.4-0.5,3.9-0.5c2.1,0,5.5,0.6,10.2,1.7l0.8,0.2
		c1.6-1.4,3.1-3.2,4.5-5.7c2.2-3.5,4.3-8.7,6.4-15.5c1.1-3.4,1.9-6.3,2.5-8.8c-1.8-1.2-3.8-2.4-6-3.4c-2.2-1-4.4-1.8-6.6-2.4
		c-2.2-0.6-4.1-0.8-5.8-0.8c-2,0-3.6,0.4-4.9,1.3c-1.2,0.8-1.8,2-1.8,3.4c0,0.9,0.3,1.8,0.9,2.7c0.6,0.9,1.5,1.8,2.6,2.6
		c1.1,0.8,2.5,1.5,4.2,2.2l-2.3,2c-2.2-1-3.8-2.3-5-3.8c-1.2-1.5-1.8-3.2-1.8-4.9c0-1.4,0.4-2.7,1.3-3.8c0.9-1.1,2.1-2,3.6-2.6
		c1.5-0.6,3.3-0.9,5.2-0.9c5,0,10.7,1.8,17.1,5.4C35.2,9.5,35.5,7.9,35.6,6.3z M17.2,46.4c-4.4-1.2-7.8-1.8-10.4-1.8
		c-1.1,0-1.9,0.2-2.5,0.5c-0.6,0.3-0.9,0.8-0.9,1.3c0,0.6,0.5,1.1,1.4,1.6c1,0.4,2.1,0.7,3.6,0.7C11.3,48.6,14.2,47.9,17.2,46.4z
		 M21.9,44.7l1,0.3c3.1,0.8,5.6,1.4,7.6,1.8c2,0.3,3.9,0.5,5.7,0.5c2.5,0,4.8-0.5,6.9-1.6c2.1-1.1,3.7-2.6,4.9-4.5
		c1.2-1.9,1.8-4.1,1.8-6.4c0-6-4.3-12.2-12.9-18.6c-0.2,0.9-0.8,2.7-1.6,5.4c-1.4,4.2-2.6,7.3-3.5,9.4C29,37.2,25.7,41.8,21.9,44.7z
		"/>
</g>
<g>
	<path class="st1" d="M65.5,61.5C65.5,61.5,65.4,61.5,65.5,61.5l-0.3,0.2c-2.7,1.3-5.6,1.9-8.7,1.9c-2.4,0-4.6-0.4-6.4-1.2
		c-1.9-0.8-3.3-1.9-4.3-3.3c-1-1.4-1.5-3.1-1.5-4.9c0-4.3,3.2-8,9.5-11.2l0.2-0.1v-0.1v-0.1c0-1.9,0.3-3.7,1-5.6
		c0.6-1.8,1.5-3.3,2.6-4.5c1.9-2.1,4-3.1,6.3-3.1c1.2,0,2.2,0.3,3,1S68,32,68,32.9c0,2.1-1.8,4.2-5.3,6.2c-0.6,0.4-1.7,0.9-3.3,1.7
		c-1.7,0.9-2.9,1.4-3.4,1.7c0.1,1.6,0.5,3.4,1.4,5.4c0.8,2,1.9,3.8,3.1,5.4c1.8,2.4,4.1,4.5,6.9,6.3c1.4-0.9,2.6-1.9,3.7-3.1
		s1.9-2.4,2.5-3.6c0.6-1.2,0.9-2.4,0.9-3.5c0-1.1-0.3-2-1-2.7c-0.7-0.7-1.5-1-2.5-1c-2.8,0-4.8,2.1-6.1,6.4l-1.5-2
		c0.4-1.1,0.9-2.2,1.7-3c0.7-0.9,1.6-1.6,2.6-2.1s2-0.7,3-0.7c0.9,0,1.8,0.2,2.6,0.6c0.8,0.4,1.4,1,1.8,1.8c0.4,0.8,0.7,1.6,0.7,2.5
		c0,0.9-0.2,1.8-0.6,2.8c-0.4,1-0.9,1.9-1.5,2.9c-0.6,0.9-1.5,1.9-2.4,2.8c-1,0.9-2,1.7-3,2.4l0.1,0.1c2,1.1,4,1.7,6.1,1.7
		c1.6,0,2.9-0.3,4-0.8c1.1-0.5,2.2-1.5,3.4-2.8l0.4,0.4c-2.3,3.2-5.4,4.8-9.1,4.8C70.4,63.4,67.9,62.8,65.5,61.5z M64.6,61
		c-3-1.8-5.5-4.2-7.4-7.2c-1.9-3.1-3-6.4-3.3-10l0-0.1c-4.4,2.5-6.6,5.5-6.6,9.1c0,2.7,1.1,4.9,3.2,6.7c2.1,1.8,4.7,2.7,7.9,2.7
		C60.6,62.2,62.6,61.8,64.6,61z M55.9,41.8c2.8-1.3,4.9-2.5,6.4-3.5c1.1-0.7,1.9-1.6,2.6-2.5c0.6-1,1-1.9,1-2.8
		c0-0.8-0.3-1.3-0.8-1.8c-0.5-0.4-1.2-0.6-2.1-0.6c-1.3,0-2.4,0.5-3.5,1.4c-1.1,0.9-2,2.2-2.6,3.7c-0.6,1.5-1,3.2-1,5v0.7L55.9,41.8
		z"/>
</g>
<g>
	<path class="st0" d="M96.8,98.2h-3.5l8.4-34c0.3-1.4,0.5-2.4,0.5-3c0-0.7-0.2-1.3-0.6-1.8c-0.4-0.4-1-0.7-1.7-0.7
		c-2.2,0-4.8,2.2-7.7,6.5c-1.2,1.7-2.4,3.7-3.8,6c-1.3,2.3-2.5,4.5-3.6,6.6c-1.1,2.1-2.1,4.4-3.2,6.9c-1.1,2.5-2,4.9-2.9,7.3
		l-1.9,5.5l-0.2,0.6h-3.1l0.2-0.7c1.6-5,3.4-11.9,5.5-20.7c0.8-3.3,1.5-6.5,2.1-9.4c0.8-3.9,1.2-6.7,1.2-8.2c0-0.8-0.1-1.5-0.3-2.2
		c-0.2-0.6-0.5-1.1-0.8-1.5C81,55.2,80.6,55,80.1,55c-2,0-3.6,2.2-5,6.5c-1.1,3.3-1.7,6.3-2.1,9l-2.9-1.8c0.5-2.7,1.2-5.2,2.3-7.5
		c1-2.3,2.2-4.1,3.5-5.4c1.3-1.3,2.6-1.9,3.9-1.9c1.6,0,2.8,0.8,3.7,2.3c0.9,1.5,1.3,3.6,1.3,6.2c0,2.2-0.2,4.6-0.7,7.2
		c-0.3,1.8-0.7,3.6-1,5.3l-1.9,8l0.3-0.7c2.1-4.6,4.2-8.6,6.1-12c1.9-3.4,3.8-6.1,5.4-8.2c3-3.7,5.8-5.5,8.4-5.5
		c1.2,0,2.2,0.4,3,1.1s1.2,1.7,1.2,2.9c0,1-0.2,2.4-0.6,4.1L96.8,98.2z"/>
</g>
<g>
	<path class="st0" d="M41.4,96.7c-1.2,0.5-2,0.9-3.1,0.8c-0.2,0-2.5-0.1-4.1,0.2C34.2,97.8,41.9,96.5,41.4,96.7z"/>
	<path class="st0" d="M44.1,94.8l-9.9,3l7.2-1.1c3-1.1,2.9-2,2.9-2s-0.5-0.3-1.1-0.7c-1-0.5-2.4-0.5-2.4-0.5c0,0-0.5,0-0.5,0
		s0.2,0,0.5,0c-0.7,0-1.4,0-2.1,0c-2.2,0.1-3.4,0.5-4,1c0,0-0.1,0-0.1,0c0,0,0,0,0,0c-0.1,0.1-0.3,0-0.3,0c-0.4-0.1-2.1,0.4-3.4,0.5
		c-0.3,0-0.6,0.1-0.8,0.1c-0.2,0-0.3,0.1-0.7,0.1c-0.1,0-0.1,0-0.2,0.1c-0.1,0.1,0.9,0.7,5,2.4"/>
	<path class="st0" d="M28.3,98.2C28.3,98.2,28.2,98.2,28.3,98.2C28.2,98.2,28.2,98.2,28.3,98.2c0.6,0.1,1,0.1,1.3,0.1
		c0.1,0,0.5-0.1,0.5-0.1c0.1,0,0.1,0,0.2,0c0.7-0.1,1.4-0.2,2.1-0.2c0.7-0.1,1.3-0.1,1.9-0.2c-2.4,0-4.7,0.1-7.1,0.1
		C27.6,98,27.9,98.1,28.3,98.2z"/>
	<path class="st0" d="M23.6,97.1c-0.1,0.1-0.2,0.2-0.1,0.4c0.1,0.1,0.2,0.2,0.8,0.3c1,0,0.9,0.1,0.9,0.1c0.2,0,0.5,0,0.8,0.1
		c1.1,0,2-0.1,2-0.1c0,0-0.2,0-1,0l-1.7-1.4c0,0-0.1,0-0.2,0c-0.2,0-0.2,0.1-0.3,0.1c-0.1,0.1-0.3,0.2-1.1,0.4"/>
	<path class="st0" d="M34.2,97.8l-5-2.3c0,0-2.2,0.3-2.3,0.6c-0.1,0.3-1.4,0.1-1.5,0.5c-0.1,0.4,1.7,1.4,1.7,1.4L34.2,97.8z"/>
</g>
<g>
	<path class="st0" d="M51.8,94.2c0.6-0.9,1.1-1.4,0.9-2.2c0-0.1-0.4-1.7-0.1-2.8C52.7,89.3,51.6,94.6,51.8,94.2z"/>
	<path class="st0" d="M49.3,96.2l3.4-7l-0.9,4.9c-1.3,2.1-2.6,2.1-2.6,2.1s-0.5-0.3-1.1-0.7c-0.8-0.6-1-1.5-1-1.5
		c0,0-0.1-0.3-0.1-0.3s0,0.1,0.1,0.3c-0.1-0.5-0.1-0.9-0.2-1.4c-0.1-1.5,0.4-2.3,1-2.8c0,0,0,0,0.1-0.1c0,0,0,0,0,0
		c0.1-0.1,0-0.2,0-0.2c-0.2-0.2,0.4-1.5,0.4-2.4c0-0.2,0-0.4,0.1-0.6c0-0.1,0.1-0.2,0.2-0.5c0-0.1,0.1-0.1,0.1-0.1
		c0.2-0.1,1.1,0.6,4,3.1"/>
	<path class="st0" d="M52.7,85.3C52.7,85.2,52.7,85.2,52.7,85.3C52.7,85.2,52.7,85.2,52.7,85.3c0.2,0.4,0.2,0.7,0.2,0.8
		c0,0-0.1,0.4-0.1,0.4c0,0,0,0.1,0.1,0.1c-0.1,0.5-0.1,0.9-0.1,1.4c0,0.5,0,0.9,0,1.3c-0.2-1.6-0.4-3.2-0.5-4.8
		C52.3,84.8,52.5,85,52.7,85.3z"/>
	<path class="st0" d="M50.6,82.2c0.1-0.1,0.3-0.1,0.5-0.1c0.1,0,0.4,0.1,0.5,0.5c0.2,0.7,0.3,0.6,0.3,0.6c0.1,0.1,0.1,0.3,0.2,0.5
		c0.2,0.7,0.1,1.3,0.1,1.3c0,0,0-0.1-0.1-0.7l-2.2-1c0,0,0-0.1,0-0.1c0-0.1,0.1-0.2,0.2-0.2c0.1-0.1,0.3-0.3,0.5-0.8"/>
	<path class="st0" d="M52.7,89.3l-3.9-3.2c0,0,0.3-1.5,0.6-1.6c0.4-0.1,0-0.9,0.6-1c0.6-0.1,2.2,1,2.2,1L52.7,89.3z"/>
</g>
<path class="st0" d="M21.2,77c-0.1,0.1,0.1,0.2,0.1,0.3c0.1,0.3,0.3,0.7,0.6,1c0.1,0,0.2,0.1,0.3,0.2c0.2,0.2,0.3,0.4,0.3,0.6
	c0,0,0.1,0.1,0.1,0.1c0.1,0.1,0.1,0.1,0.2,0.2c0.1,0.1,0.3,0.3,0.5,0.4c0.1,0.1,0.2,0.2,0.3,0.3c1,1,1.9,1.8,1.9,1.8
	c0.4,0.3,0.7,0.5,1.1,0.8c0.7,0.3,2.5,2,3.3,2.3c0.2,0.1,0.5,0.2,0.6,0.4c0.1,0.1,0.2,0.3,0.4,0.4c0.1,0,0.2,0,0.2,0.1
	c-0.1,0.1,3.6,2.2,3.6,2.2c0.6,0.3,1.3,0.7,2.1,1.2c1.2,0.8,1.3,1.2,2.5,2.1c0.7,0.5,0.8,0.5,2.1,1.3c0.8,0.4,1.8,1.1,3,1.9
	c0.8,0.7,1.8,1.3,3,2c3.7,2.1,7.6,3.1,10.3,3.6c-0.6-0.3-1.1-0.6-1.5-0.8c-1.1-0.6-1.2-0.7-1.7-0.8c-0.4-0.1-0.7-0.2-1.1-0.4
	c-0.3-0.2-0.3-0.2-0.6-0.3c-0.3-0.1-0.4-0.1-1-0.3c-0.2-0.1-0.6-0.2-0.8-0.2c-0.3-0.1-0.7-0.3-1.3-0.6c-1.4-0.8-4.6-3.1-6.8-4.5
	c-0.3-0.2-0.7-0.5-1.3-0.8c-0.2,0-0.4-0.1-0.5-0.1c-0.8-0.3-1.2-0.9-1.8-1.4c-0.1-0.1-0.2-0.2-0.2-0.2c-0.3-0.2-0.5-0.4-0.7-0.6
	c-0.2-0.1-0.4-0.2-0.6-0.2c-0.2-0.1-0.3-0.2-0.4-0.3c-0.9-0.4-1.9-0.7-2.6-1.3c-0.1-0.1-0.2-0.2-0.3-0.3c-0.1,0-0.3-0.1-0.4-0.2
	c-0.1-0.1-0.3-0.1-0.4-0.3c0,0-0.1-0.1-0.1-0.1c-0.6-0.4-1.1-0.7-1.6-1.2c-0.1-0.1-0.1-0.2-0.2-0.3c-0.1,0-0.1-0.1-0.2-0.1
	c-0.1,0-0.1-0.1-0.1-0.1c-0.2-0.1-0.3-0.2-0.5-0.4c-0.2,0-0.3-0.1-0.5-0.1c-0.8-0.3-1.5-0.7-2.2-1.1c-0.2-0.1-0.4-0.3-0.5-0.5
	c-0.8-0.5-1.5-1.1-2.2-1.7c-0.1-0.1-0.1-0.1-0.2-0.2c-1.1-1.1-2.1-2.3-3.2-3.3L22,76.9c0,0,0,0-0.1,0C21.7,76.7,21.3,76.8,21.2,77z"
	/>
<g>
	<path class="st0" d="M32.8,91.1c-1.3,0.5-2.1,0.9-3.5,0.7c-0.2,0-3-0.3-4.7-0.1C24.6,91.7,33.4,90.9,32.8,91.1z"/>
	<path class="st0" d="M18.3,88.3c-0.1,0.3,2.6,2,6.3,3.4c0.7,0.2,1.3,0.5,1.8,0.6c0.2,0,0.4,0.1,0.6,0.1c0.1,0,0.2,0.1,0.3,0.1
		c0,0,0,0,0.1,0c0,0,0,0,0.1,0c0.1,0,0.3,0,0.4,0c0.1,0,0.1,0,0.2,0c0.1,0,0.1,0,0.2,0l2.7-1.2l2-0.1c3.3-1,3-2.1,3-2.1
		s-0.6-0.5-1.5-0.9c-1.2-0.7-2.9-0.9-2.9-0.9c-0.8-0.1-1.6-0.1-2.5-0.2c-2.4-0.2-4,1.2-4.5,0.8c-0.2-0.1,0-0.2-0.2-0.4
		c-0.6-0.4-2.8,0.7-4.2,0.7c-0.3,0-0.6,0-0.9,0c-0.2,0-0.3,0-0.7,0.1C18.3,88.2,18.3,88.3,18.3,88.3z"/>
	<path class="st0" d="M17.8,91.6C17.8,91.6,17.8,91.6,17.8,91.6C17.8,91.6,17.8,91.6,17.8,91.6c0.7,0.2,1.2,0.2,1.5,0.2
		c0.1,0,0.6,0,0.6,0c0.1,0,0.2,0,0.3,0.1c0.8,0,1.6-0.1,2.4-0.1c0.8,0,1.5,0,2.2,0c-2.8-0.2-5.5-0.4-8.3-0.5
		C16.9,91.3,17.4,91.5,17.8,91.6z"/>
	<path class="st0" d="M12.1,89.8c-0.1,0.1-0.2,0.3-0.1,0.4c0.1,0.1,0.2,0.3,1,0.4c1.2,0.2,1.1,0.3,1.1,0.3c0.2,0,0.6,0.1,1,0.2
		c1.3,0.2,2.3,0.1,2.3,0.1c0,0-0.2,0-1.1-0.1l-2.2-1.8c0,0-0.1,0-0.2,0c-0.2,0-0.3,0.1-0.3,0.1c-0.1,0.1-0.4,0.2-1.2,0.4"/>
	<path class="st0" d="M24.6,91.7l-6.4-3.4c0,0-2.5,0.2-2.6,0.5c-0.1,0.3-1.6,0-1.6,0.5c0,0.5,2.2,1.8,2.2,1.8L24.6,91.7z"/>
</g>
<g>
	<g>
		<path class="st0" d="M43.9,87.3c0.6-0.9,1.1-1.5,0.8-2.4c-0.1-0.2-0.7-2-0.6-3.2C44.2,81.7,43.6,87.7,43.9,87.3z"/>
		<path class="st0" d="M38.7,77.7c0.5-0.1,3.1,1.6,5.5,4c0.4,0.4,0.8,0.8,1.1,1.2c0.1,0.1,0.1,0.2,0.2,0.4c0,0.1,0.1,0.2,0.1,0.2
			c0,0,0,0,0,0.1c0,0,0,0,0,0.1c0,0.1,0,0.2,0,0.3c0,0,0,0.1,0,0.1c0,0,0,0.1,0,0.1L44,85.9l-0.1,1.3c-1.3,2.3-2.9,2.2-2.9,2.2
			s-0.7-0.4-1.5-0.9c-1.1-0.8-1.5-1.9-1.5-1.9c-0.2-0.5-0.3-1.1-0.5-1.6c-0.5-1.6,1.4-2.8,0.8-3.1c-0.2-0.1-0.3,0-0.5-0.1
			c-0.6-0.4,0.8-1.9,0.7-2.9c0-0.2,0-0.4,0-0.6c0-0.1,0-0.2,0.1-0.5C38.6,77.7,38.6,77.7,38.7,77.7z"/>
		<path class="st0" d="M43.5,77.1C43.5,77.1,43.5,77.1,43.5,77.1C43.5,77.1,43.5,77.1,43.5,77.1c0.3,0.5,0.4,0.8,0.4,1
			c0,0.1,0,0.4,0,0.4c0,0.1,0.1,0.1,0.1,0.2c0,0.5,0,1.1,0.1,1.6c0,0.5,0.1,1,0.2,1.5c-0.5-1.8-1-3.7-1.5-5.5
			C43,76.6,43.2,76.8,43.5,77.1z"/>
		<path class="st0" d="M40.4,73.5c0.1-0.1,0.4-0.1,0.6-0.1c0.2,0,0.5,0.1,0.7,0.7c0.3,0.8,0.5,0.7,0.5,0.7c0.1,0.2,0.2,0.4,0.3,0.6
			c0.3,0.8,0.4,1.5,0.3,1.5c0,0-0.1-0.1-0.2-0.8l-2.9-1.4c0,0,0-0.1,0-0.1c0-0.1,0.2-0.2,0.2-0.2c0.1-0.1,0.3-0.3,0.5-0.8"/>
		<path class="st0" d="M44.2,81.7l-5.5-4c0,0,0.1-1.7,0.5-1.8c0.4-0.1-0.1-1.1,0.6-1.1c0.7,0,2.9,1.4,2.9,1.4L44.2,81.7z"/>
	</g>
	<path class="st0" d="M39.3,90l0.7-1l1.7,0.4l-0.9,0.5c0,0,0.1,0.2-0.4,0.5c0,0,0.2,0.4,0.2,0.5C40.4,91,39.3,90,39.3,90z"/>
</g>
<path class="st0" d="M29.6,83.5c0,0-0.2-3.5,0.1-3.7L28.3,77l-1.8-2.6c-0.4-0.4-0.9-0.9-1.3-1.6c-0.2-0.5-0.4-0.9-0.4-1.2
	c-0.1-0.1,0-0.3,0.1-0.3c0.2-0.1,0.4-0.1,0.6,0c0.7,0.3,1.3,0.6,2,0.9l3.1,2.2c0,0,0.4,0.1,1,0.5c0.5,0.4,1,1.1,1,1.1l0.5,0.4
	c0,0,0.8,1,0.6,1c-0.2,0.1,1.4,1.8-0.1,3.3c0,0-0.9,1.4-1.3,1.5c0,0,0,1-0.5,1l-0.4,1.1L29.6,83.5z"/>
<path class="st0" d="M26.5,82.6c0,0-9.6-0.4-10.8-1.7c0,0-1-0.4-1.6-0.5c0,0-4.6-3-4.4-3.5c0.2-0.5-2-1.5-2-1.5s-1.9-1.2-2.2-1.5
	c-0.3-0.3-0.2-0.6-0.2-0.6L7.3,74c1.8,0.8,1.8,0.8,1.8,0.8L9,74.8c1.9,0.5,4,1.1,6.2,2c1.3,0.5,2.6,1,3.7,1.6
	c0.3,0.4,0.6,0.5,0.8,0.5c0.2,0,0.4,0,0.7,0.1c0.1,0,0.2,0.1,0.3,0.1c0.7,0.2,1.7,0.5,2.6,1C24.9,81,25.9,81.9,26.5,82.6z"/>
<path class="st0" d="M21.4,77.1c0,0-5.1-1.7-4.5-2.2c0,0-1.2-0.6-1.1-1c0,0-1-0.7-1-1.1c0,0-1.3-0.3-1.9-1.8c0,0-0.7-0.7-0.5-0.9
	c0,0-0.9-0.7-0.5-0.9l-0.5-0.4l0.1-0.3c0,0-0.5-0.5,0-1.6c0.5-1.2-0.5-1.5-0.2-2c0.4-0.4,0.2-0.1,0.2-0.1s-0.7,0-0.4-2l-0.1-1.7
	c0,0,1.4,0.9,1.5,0.7c0,0,0.7,0.5,0.8,0.6c0.1,0.1,0.6,0.3,0.6,0.3s1.4,0.8,1.4,0.9c0,0,1.3,1.1,1.3,1.1c0,0,0.4,0.1,0.5,0.3
	s1.5,2.3,1.5,2.3s0.5,0.9,0.7,1.1c0.2,0.3,1.5,1.7,1.1,1.8c-0.4,0.1,0.8,1.3,0.3,1.2s0.8,1.6,0.8,1.6s0.8,2.2,0.7,2.3
	c-0.1,0-0.3,1.1-0.3,1.1s0.5,0.8,0,0.7"/>
<g>
	<g>
		<path class="st0" d="M107.7,21.2c0.7-0.8,1.2-1.3,1.2-2c0-0.1-0.1-1.6,0.3-2.6C109.2,16.6,107.4,21.6,107.7,21.2z"/>
		<path class="st0" d="M105,23.1l4.2-6.5l-1.5,4.6c-1.5,2-2.8,2-2.8,2s-0.5-0.3-0.9-0.7c-0.6-0.6-0.7-1.4-0.7-1.5c0,0,0-0.3,0-0.3
			s0,0.1,0,0.3c0-0.4,0-0.9,0-1.3c0.2-1.4,0.8-2.2,1.4-2.6c0,0,0,0,0.1,0c0,0,0,0,0,0c0.1-0.1,0-0.2,0-0.2c-0.1-0.2,0.6-1.4,0.7-2.2
			c0-0.2,0.1-0.4,0.1-0.5c0-0.1,0.1-0.2,0.2-0.4c0-0.1,0.1-0.1,0.1-0.1c0.2-0.1,0.9,0.5,3.2,3"/>
		<path class="st0" d="M109.8,12.8C109.8,12.8,109.8,12.8,109.8,12.8C109.8,12.8,109.8,12.8,109.8,12.8c0.1,0.4,0.1,0.6,0.1,0.8
			c0,0-0.1,0.3-0.1,0.3c0,0,0,0.1,0,0.1c-0.1,0.4-0.2,0.9-0.3,1.4c-0.1,0.4-0.2,0.8-0.2,1.2c0.1-1.5,0.1-3,0.2-4.5
			C109.5,12.4,109.6,12.6,109.8,12.8z"/>
		<path class="st0" d="M108.2,10c0.1-0.1,0.3-0.1,0.5-0.1c0.1,0,0.3,0.1,0.4,0.5c0.1,0.6,0.2,0.6,0.2,0.6c0,0.1,0.1,0.3,0.1,0.5
			c0.1,0.7-0.1,1.2-0.1,1.2c0,0,0-0.1,0-0.6l-1.9-1c0,0,0,0,0-0.1c0-0.1,0.2-0.2,0.2-0.2c0.1-0.1,0.3-0.2,0.6-0.7"/>
		<path class="st0" d="M109.2,16.6l-3.2-3c0,0,0.5-1.4,0.8-1.5c0.4-0.1,0.2-0.9,0.7-1c0.5-0.1,1.9,1,1.9,1L109.2,16.6z"/>
	</g>
	<g>
		<path class="st0" d="M104,28c-1.2,0.4-2,0.8-3.1,0.8c-0.2,0-2.3-0.1-3.9,0.2C97.1,28.9,104.6,27.8,104,28z"/>
		<path class="st0" d="M106.9,26.3l-9.8,2.7L104,28c3-1,3-1.8,3-1.8s-0.4-0.3-1-0.6c-0.8-0.4-2.1-0.5-2.1-0.5c0,0-0.5,0-0.5,0
			s0.2,0,0.5,0c-0.7,0-1.3,0-2,0c-2.1,0.1-3.2,0.4-3.9,0.8c0,0-0.1,0-0.1,0c0,0,0,0,0,0c-0.1,0-0.3,0-0.3,0
			c-0.3-0.1-2.1,0.4-3.3,0.4c-0.3,0-0.5,0-0.8,0.1c-0.1,0-0.3,0.1-0.6,0.1c-0.1,0-0.1,0-0.2,0.1c-0.1,0.1,0.8,0.7,4.3,2.3"/>
		<path class="st0" d="M91.5,29.2C91.5,29.2,91.5,29.2,91.5,29.2C91.5,29.2,91.5,29.2,91.5,29.2c0.6,0.1,0.9,0.1,1.2,0.1
			c0.1,0,0.5-0.1,0.5-0.1c0.1,0,0.1,0,0.2,0c0.6-0.1,1.3-0.1,2-0.2c0.6-0.1,1.2-0.1,1.8-0.1c-2.2,0-4.5,0-6.7,0
			C90.9,29,91.2,29.1,91.5,29.2z"/>
		<path class="st0" d="M87.4,28.1c-0.1,0.1-0.2,0.2-0.2,0.3c0,0.1,0.1,0.2,0.7,0.3c1,0.1,0.9,0.2,0.9,0.2c0.2,0,0.4,0.1,0.8,0.1
			c1,0.1,1.8,0,1.8,0c0,0-0.2,0-0.9,0l-1.4-1.3c0,0-0.1,0-0.2,0c-0.1,0-0.2,0.1-0.3,0.1c-0.1,0.1-0.4,0.2-1.1,0.4"/>
		<path class="st0" d="M97.1,28.9l-4.4-2.3c0,0-2.2,0.3-2.3,0.5c-0.1,0.2-1.3,0.1-1.4,0.5s1.4,1.3,1.4,1.3L97.1,28.9z"/>
	</g>
	<path class="st0" d="M80.7,9.4c0.1,0,0.3,0,0.4,0c0.4,0.1,0.9,0.2,1.3,0.3c0.1,0.1,0.1,0.1,0.2,0.2c0.3,0.1,0.5,0.2,0.8,0.2
		c0,0,0.1,0,0.1,0c0.1,0,0.2,0.1,0.3,0.1c0.2,0.1,0.4,0.2,0.6,0.3c0.1,0.1,0.3,0.1,0.4,0.2c1.3,0.6,2.5,1.1,2.5,1.1
		c0.3,0.2,0.7,0.5,1,0.7c0.4,0.4,2.7,1.5,3.1,2c0.1,0.1,0.2,0.3,0.5,0.4c0.2,0.1,0.4,0.1,0.5,0.2c0,0.1,0.1,0.1,0.1,0.1
		c0.2,0,2.9,2.2,2.9,2.2c0.4,0.4,0.9,0.8,1.6,1.3c1.1,0.7,1.7,0.8,2.8,1.5c0.6,0.4,0.7,0.5,1.7,1.3c0.6,0.5,1.5,1.1,2.6,1.9
		c0.9,0.5,1.8,1.1,2.7,1.8c2.8,2.3,4.1,4.7,4.7,6.4c-0.4-0.4-0.8-0.7-1.1-0.9c-0.8-0.7-0.9-0.7-1.1-1c-0.1-0.2-0.2-0.4-0.5-0.7
		c-0.2-0.2-0.3-0.2-0.4-0.4c-0.2-0.2-0.2-0.3-0.4-0.6c-0.1-0.2-0.2-0.3-0.3-0.5c-0.1-0.2-0.4-0.5-0.8-0.8c-1.1-0.8-4.2-2.8-6.1-4.2
		c-0.3-0.2-0.6-0.5-1-0.8c0-0.1-0.1-0.2-0.2-0.3c-0.5-0.5-1.2-0.7-1.8-1.1c-0.1-0.1-0.2-0.1-0.3-0.1c-0.2-0.2-0.5-0.3-0.8-0.5
		c-0.1-0.1-0.2-0.3-0.3-0.4c-0.1-0.1-0.2-0.2-0.4-0.2c-0.5-0.6-0.9-1.2-1.8-1.6c-0.1-0.1-0.3-0.1-0.4-0.1c-0.1-0.1-0.2-0.2-0.3-0.2
		c-0.1-0.1-0.2-0.2-0.4-0.2c0,0-0.1,0-0.1-0.1c-0.5-0.4-1-0.7-1.6-1C91.4,16,91.3,16,91.1,16c-0.1,0-0.1-0.1-0.2-0.1
		c0,0-0.1-0.1-0.1-0.1c-0.2-0.1-0.3-0.2-0.5-0.3c0-0.1-0.1-0.2-0.2-0.3c-0.5-0.5-0.9-1-1.5-1.4c-0.2-0.1-0.4-0.2-0.6-0.3
		c-0.7-0.5-1.5-1-2.3-1.3c-0.1,0-0.2-0.1-0.3-0.1c-1.5-0.7-3.2-1.3-4.5-1.9l-0.4-0.3c0,0,0,0,0,0C80.3,9.7,80.5,9.4,80.7,9.4z"/>
	<g>
		<path class="st0" d="M99.9,16.2c0.7-0.9,1.2-1.4,1-2.3c0-0.2-0.5-1.8-0.1-3C100.8,11,99.6,16.6,99.9,16.2z"/>
		<path class="st0" d="M96.1,7.2c0.4-0.1,2.7,1.5,4.7,3.8c0.3,0.4,0.6,0.8,0.9,1.1c0,0.1,0.1,0.2,0.1,0.3c0,0.1,0.1,0.1,0.1,0.2
			c0,0,0,0,0,0.1c0,0,0,0,0,0c0,0.1,0,0.2,0,0.2c0,0,0,0.1,0,0.1c0,0,0,0.1,0,0.1l-1.7,1.8l-0.2,1.3c-1.5,2.1-3,2-3,2
			s-0.6-0.4-1.3-0.9c-0.9-0.7-1.2-1.7-1.2-1.7c-0.1-0.5-0.2-1-0.3-1.5c-0.3-1.5,1.6-2.6,1.1-2.9c-0.2-0.1-0.3,0-0.5-0.1
			c-0.5-0.4,1-1.8,1-2.7c0-0.2,0-0.4,0.1-0.6c0-0.1,0.1-0.2,0.2-0.5C96,7.3,96,7.2,96.1,7.2z"/>
		<path class="st0" d="M100.7,6.7C100.7,6.7,100.7,6.7,100.7,6.7C100.7,6.7,100.7,6.7,100.7,6.7c0.3,0.5,0.3,0.7,0.2,0.9
			c0,0.1-0.1,0.4-0.1,0.4c0,0.1,0.1,0.1,0.1,0.2c-0.1,0.5-0.1,1-0.1,1.5c0,0.5,0,1,0,1.4c-0.2-1.7-0.5-3.5-0.7-5.2
			C100.3,6.2,100.5,6.4,100.7,6.7z"/>
		<path class="st0" d="M98.2,3.2c0.1-0.1,0.4-0.1,0.6-0.1c0.2,0,0.4,0.1,0.6,0.6c0.2,0.8,0.4,0.7,0.4,0.7c0.1,0.1,0.1,0.4,0.2,0.6
			c0.2,0.8,0.2,1.4,0.1,1.4c0,0,0-0.1-0.1-0.7l-2.5-1.3c0,0,0-0.1,0-0.1c0-0.1,0.2-0.2,0.2-0.2c0.1-0.1,0.3-0.2,0.6-0.8"/>
		<path class="st0" d="M100.8,11l-4.6-3.8c0,0,0.3-1.6,0.7-1.7s0-1,0.7-1s2.5,1.3,2.5,1.3L100.8,11z"/>
	</g>
	<g>
		<g>
			<path class="st0" d="M94.4,23.5c-1.3,0.5-2.1,0.8-3.4,0.7c-0.2,0-2.7-0.3-4.4-0.1C86.7,24.1,95,23.3,94.4,23.5z"/>
			<path class="st0" d="M81.1,20.9c-0.2,0.3,2.2,1.8,5.6,3.2c0.6,0.2,1.1,0.4,1.6,0.6c0.2,0,0.3,0.1,0.5,0.1c0.1,0,0.2,0.1,0.3,0.1
				c0,0,0,0,0.1,0c0,0,0,0,0.1,0c0.1,0,0.2,0,0.3,0c0.1,0,0.1,0,0.2,0c0,0,0.1,0,0.1,0l2.6-1.2l1.9-0.1c3.2-1,3-2,3-2
				s-0.5-0.4-1.3-0.9c-1.1-0.6-2.6-0.8-2.6-0.8c-0.8-0.1-1.5-0.1-2.3-0.2c-2.2-0.2-3.9,1.1-4.3,0.7c-0.2-0.1,0-0.2-0.1-0.3
				c-0.5-0.4-2.7,0.7-4,0.6c-0.3,0-0.6,0-0.9,0c-0.2,0-0.3,0-0.7,0.1C81.2,20.9,81.1,20.9,81.1,20.9z"/>
			<path class="st0" d="M80.3,24C80.3,24,80.2,24,80.3,24C80.2,24,80.2,24,80.3,24c0.7,0.2,1.1,0.2,1.4,0.2c0.1,0,0.6,0,0.6,0
				c0.1,0,0.2,0,0.2,0.1c0.7,0,1.5-0.1,2.3-0.1c0.7,0,1.4,0,2.1,0c-2.6-0.2-5.1-0.3-7.7-0.5C79.5,23.7,79.9,23.9,80.3,24z"/>
			<path class="st0" d="M75.2,22.3c-0.1,0.1-0.2,0.2-0.1,0.4c0.1,0.1,0.2,0.3,0.9,0.4c1.1,0.1,1,0.3,1,0.3c0.2,0,0.5,0.1,0.9,0.1
				c1.2,0.1,2.1,0.1,2.1,0.1c0,0-0.2,0-1.1-0.1l-1.9-1.7c0,0-0.1,0-0.2,0c-0.2,0-0.2,0.1-0.3,0.1c-0.1,0.1-0.4,0.2-1.2,0.4"/>
			<path class="st0" d="M86.7,24.1L81.1,21c0,0-2.4,0.2-2.5,0.5c-0.1,0.3-1.5,0-1.6,0.4c-0.1,0.4,1.9,1.7,1.9,1.7L86.7,24.1z"/>
		</g>
		<path class="st0" d="M98.2,20.4L96.8,21l0.6,1l0.7-0.6c0,0,0.3,0.1,0.8-0.3c0,0,0.6,0.1,0.7,0.1C99.6,21.1,98.2,20.4,98.2,20.4z"
			/>
	</g>
	<path class="st0" d="M89.3,14.8c0,0-4.9,0.1-5.2,0.3l-3.9-0.7l-3.6-1c-0.5-0.2-1.3-0.5-2.3-0.7c-0.6-0.1-1.2-0.2-1.7-0.2
		c-0.2,0-0.4,0-0.5,0.1c-0.1,0.1-0.1,0.3,0.1,0.4c0.4,0.4,0.8,0.8,1.3,1.2l3,1.8c0,0,0.1,0.3,0.7,0.6c0.6,0.3,1.6,0.5,1.6,0.5
		l0.5,0.3c0,0,1.3,0.4,1.4,0.3c0.1-0.1,2.5,0.7,4.6-0.3c0,0,2-0.7,2.2-0.9c0,0,1.4-0.1,1.4-0.4l1.5-0.3L89.3,14.8z"/>
	<path class="st0" d="M88,12.8c0,0-0.5-6-2.3-6.7c0,0-0.5-0.6-0.7-1c0,0-4.1-2.7-4.8-2.5c-0.7,0.2-2-1.2-2-1.2S76.4,0.4,76,0.2
		c-0.4-0.2-0.8-0.1-0.8-0.1l1,1.3c1.1,1.1,1.1,1.1,1.1,1.1l0.1,0c0.7,1.2,1.6,2.4,2.7,3.8c0.7,0.8,1.4,1.5,2.2,2.2
		c0.5,0.2,0.7,0.3,0.7,0.5c0,0.1,0,0.2,0.1,0.4c0,0.1,0.1,0.1,0.1,0.2c0.3,0.5,0.7,1,1.4,1.6C85.8,12,87.1,12.5,88,12.8z"/>
	<path class="st0" d="M81.6,10.1c0,0-2.4-3.1-3.1-2.7c0,0-0.8-0.7-1.3-0.6c0,0-1-0.6-1.5-0.6c0,0-0.5-0.8-2.5-1.1c0,0-1-0.4-1.3-0.3
		c0,0-0.9-0.5-1.2-0.3l-0.5-0.3l-0.4,0.1c0,0-0.7-0.3-2.3,0.1c-1.6,0.4-2.1-0.2-2.7,0c-0.6,0.3-0.2,0.1-0.2,0.1s0-0.5-2.8-0.1
		l-2.4,0.1c0,0,1.2,0.8,1,0.9c0,0,0.7,0.4,0.8,0.4c0.1,0,0.3,0.4,0.3,0.4s1.1,0.8,1.3,0.8c0,0,1.6,0.7,1.6,0.8c0,0,0.1,0.3,0.4,0.3
		S68,9.1,68,9.1s1.2,0.3,1.6,0.4s2.3,0.8,2.5,0.6c0.2-0.2,1.8,0.4,1.7,0.1s2.2,0.4,2.2,0.4s3.1,0.4,3.1,0.3c0-0.1,1.6-0.2,1.6-0.2
		s1.1,0.3,1-0.1"/>
</g>
<path class="st0" d="M97.1,47.9l2-0.7c0.1-0.3,1-2.3,3.5-3c2-0.5,4.1,0,5.6,1.3c0.6,0.7,1.1,1.3,1.5,1.8c0.5,0.7,0.9,1.3,1.2,1.7
	c0.4,0.6,0.6,1.1,0.8,1.4c0.4,0.4,1.2,1,2.2,1.5c1,0.5,2,0.7,2.6,0.7c1-0.1,1.5-0.4,1.9-0.6c0.1-0.1,0.2-0.2,0.2-0.1
	c0.1,0-0.7,1-1.3,1.8c0.6,0.1,1.1,0.3,1.7,0.4c-0.3,0.5-0.8,1.2-1.6,1.8c-2.2,1.9-5,2.1-6.4,2.2c-1.9,0.1-5.8,0.4-8.9-2
	c-2.8-2.2-3.3-6.3-3.2-6.5L97.1,47.9z"/>
</svg>
